<?xml version="1.0" encoding="UTF-8"?>
<svg version="1.1" xmlns="http://www.w3.org/2000/svg" width="316" height="693">
<path d="M0 0 C104.28 0 208.56 0 316 0 C316 228.69 316 457.38 316 693 C211.72 693 107.44 693 0 693 C0 464.31 0 235.62 0 0 Z " fill="#F4F4F4" transform="translate(0,0)"/>
<path d="M0 0 C11.323125 -0.12375 11.323125 -0.12375 22.875 -0.25 C25.23769043 -0.28641602 27.60038086 -0.32283203 30.03466797 -0.36035156 C31.93716528 -0.37204951 33.83967271 -0.38223871 35.7421875 -0.390625 C37.18766968 -0.4213208 37.18766968 -0.4213208 38.66235352 -0.45263672 C46.54577851 -0.45663541 53.53887527 1.10149641 59.69140625 6.25390625 C60.61759766 7.39666016 60.61759766 7.39666016 61.5625 8.5625 C62.20316406 9.32691406 62.84382813 10.09132813 63.50390625 10.87890625 C67.39637258 16.39746818 66.60352395 23.55773272 66 30 C63.87501813 36.89129635 59.21429155 41.50188886 53 45 C52.34 45 51.68 45 51 45 C54.53104963 52.06209925 58.96523167 58.12565174 63.80957031 64.32617188 C66.46483014 67.76475851 68.67239087 70.79726189 70 75 C64.63986338 75.97951735 59.26457115 76.7829055 54 75 C49.2998163 71.3662657 46.29141932 66.0534938 43.25146484 61.03515625 C41.56318611 58.28964483 39.66093738 55.71868747 37.75 53.125 C35 49.26190476 35 49.26190476 35 47 C27.74 47 20.48 47 13 47 C13 55.91 13 64.82 13 74 C8.71 74 4.42 74 0 74 C0 49.58 0 25.16 0 0 Z " fill="#020202" transform="translate(138,287)"/>
<path d="M0 0 C20.13 0 40.26 0 61 0 C61 4.29 61 8.58 61 13 C45.16 13 29.32 13 13 13 C13 18.61 13 24.22 13 30 C26.86 30 40.72 30 55 30 C55 33.96 55 37.92 55 42 C41.47 42.33 27.94 42.66 14 43 C13.67 49.27 13.34 55.54 13 62 C28.84 62 44.68 62 61 62 C61 66.29 61 70.58 61 75 C40.87 75 20.74 75 0 75 C0 50.25 0 25.5 0 0 Z " fill="#050505" transform="translate(45,287)"/>
<path d="M0 0 C20.13 0 40.26 0 61 0 C61 3.96 61 7.92 61 12 C45.49 12 29.98 12 14 12 C14 17.94 14 23.88 14 30 C27.53 30 41.06 30 55 30 C55 33.96 55 37.92 55 42 C41.47 42 27.94 42 14 42 C14 48.6 14 55.2 14 62 C29.51 62 45.02 62 61 62 C61 66.29 61 70.58 61 75 C40.87 75 20.74 75 0 75 C0 50.25 0 25.5 0 0 Z " fill="#050505" transform="translate(239,287)"/>
<path d="M0 0 C4.5211958 -0.08111115 9.04092842 -0.14056327 13.5625 -0.1875 C15.47772461 -0.22520508 15.47772461 -0.22520508 17.43164062 -0.26367188 C31.34688909 -0.37210238 31.34688909 -0.37210238 37.4375 5.25 C39.48046228 8.84561362 39.57325731 10.91554166 39 15 C36.51245752 19.97508497 34.085266 21.91547183 29 24 C25.65673828 24.34057617 25.65673828 24.34057617 22.0703125 24.29296875 C20.78125 24.28330078 19.4921875 24.27363281 18.1640625 24.26367188 C16.81770214 24.23861188 15.47134797 24.21321712 14.125 24.1875 C12.75522295 24.17243504 11.38542998 24.15874982 10.015625 24.14648438 C6.67691255 24.11121629 3.33840508 24.05741206 0 24 C0 16.08 0 8.16 0 0 Z " fill="#EAEAEA" transform="translate(151,299)"/>
<path d="M0 0 C3.3 0 6.6 0 10 0 C10 24.42 10 48.84 10 74 C6.7 74 3.4 74 0 74 C0 49.58 0 25.16 0 0 Z " fill="#000000" transform="translate(0,287)"/>
</svg>
