<?xml version="1.0" encoding="UTF-8"?>
<svg version="1.1" xmlns="http://www.w3.org/2000/svg" width="329" height="688">
<path d="M0 0 C105.6 0 211.2 0 320 0 C320 225.72 320 451.44 320 684 C214.4 684 108.8 684 0 684 C0 458.28 0 232.56 0 0 Z " fill="#F4F4F4" transform="translate(0,0)"/>
<path d="M0 0 C7.59 -0.061875 15.18 -0.12375 23 -0.1875 C26.57134766 -0.22846802 26.57134766 -0.22846802 30.21484375 -0.27026367 C32.12239069 -0.27903346 34.02994328 -0.28667623 35.9375 -0.29296875 C36.91138672 -0.30831665 37.88527344 -0.32366455 38.88867188 -0.33947754 C46.74864518 -0.34246688 53.58562103 0.87614188 59.61328125 6.44140625 C64.89502954 12.37779376 66.86138156 18.05435456 66.4765625 26.00390625 C65.38773195 32.84925897 62.57570569 38.12147429 57.125 42.4375 C51.03703681 46.70416877 45.72196413 48.38219234 38.31640625 48.29296875 C37.61603745 48.28872391 36.91566864 48.28447906 36.19407654 48.28010559 C33.98314 48.26347156 31.77315543 48.2258518 29.5625 48.1875 C28.05274765 48.17243326 26.54298084 48.15874836 25.03320312 48.14648438 C21.35481757 48.11618466 17.6784592 48.05744268 14 48 C14 56.91 14 65.82 14 75 C9.38 75 4.76 75 0 75 C0 50.25 0 25.5 0 0 Z " fill="#040404" transform="translate(163,284)"/>
<path d="M0 0 C1.96202013 1.55955447 3.76265691 3.07656323 5.4375 4.9375 C4.0437718 9.37208973 1.83167765 11.81128374 -1.5625 14.9375 C-5.25129299 13.13502161 -8.78900083 11.1098788 -12.34375 9.05859375 C-19.24656442 5.57072801 -28.85018194 5.89781951 -36.2890625 7.5390625 C-40.15226727 8.84896563 -40.15226727 8.84896563 -42.5625 11.9375 C-42.6314472 13.31092831 -42.64717708 14.68752102 -42.625 16.0625 C-42.604375 17.34125 -42.58375 18.62 -42.5625 19.9375 C-37.8855521 22.09387967 -33.08664842 22.92650624 -28.0625 23.875 C-26.26543336 24.22819296 -24.46855801 24.58236065 -22.671875 24.9375 C-19.66275369 25.52822049 -16.65262493 26.11150001 -13.640625 26.6875 C-5.19726126 28.43166904 1.78163063 31.15045676 7.4375 37.9375 C9.23396357 43.32689072 9.33895873 49.42981672 7.1875 54.75 C4.08673792 60.39781665 1.23800669 63.42672857 -4.625 66.1875 C-5.66785156 66.68765625 -6.71070313 67.1878125 -7.78515625 67.703125 C-18.99985019 72.68743342 -36.36709472 71.61226197 -47.78515625 67.3515625 C-59.95306604 61.15636792 -59.95306604 61.15636792 -62.5625 55.9375 C-60.2525 52.6375 -57.9425 49.3375 -55.5625 45.9375 C-51.26566116 48.08591942 -47.40902102 50.62544659 -43.4140625 53.28125 C-37.3851469 56.78297632 -32.00659936 57.32675166 -25.1875 57.375 C-24.37539062 57.40787109 -23.56328125 57.44074219 -22.7265625 57.47460938 C-16.72736926 57.52748688 -11.98469234 56.18590387 -7.5625 51.9375 C-6.47854398 48.34989564 -6.47854398 48.34989564 -7.5625 44.9375 C-11.41014706 41.95844491 -15.13425023 41.26709619 -19.875 40.5 C-49.1530668 35.40490891 -49.1530668 35.40490891 -57.5625 23.9375 C-59.65656935 19.7493613 -58.98148491 14.49845004 -58.5625 9.9375 C-55.46942871 3.25646601 -49.58111097 -1.44734863 -42.9375 -4.4375 C-29.39588762 -8.89518153 -12.10304174 -7.57170969 0 0 Z " fill="#040404" transform="translate(125.5625,289.0625)"/>
<path d="M0 0 C4.62 0 9.24 0 14 0 C14 10.23 14 20.46 14 31 C29.18 31 44.36 31 60 31 C60 20.77 60 10.54 60 0 C60.33 0 60.66 0 61 0 C61 24.75 61 49.5 61 75 C60.67 75 60.34 75 60 75 C60 64.77 60 54.54 60 44 C44.49 44 28.98 44 13 44 C13 53.9 13 63.8 13 74 C8.71 74 4.42 74 0 74 C0 49.58 0 25.16 0 0 Z " fill="#030303" transform="translate(259,284)"/>
<path d="M0 0 C4.02059946 -0.06914407 8.03967009 -0.12879137 12.06054688 -0.16479492 C13.42617816 -0.17981428 14.79176176 -0.20023608 16.15722656 -0.22631836 C18.12803905 -0.26300137 20.09921408 -0.27818551 22.0703125 -0.29296875 C23.25383301 -0.3086792 24.43735352 -0.32438965 25.65673828 -0.34057617 C29.43014341 0.04381846 31.78788669 1.00823338 35 3 C37.68468038 7.02702057 37.68187737 10.2684363 37 15 C34.86005323 18.59205351 32.86731904 20.50193145 29 22 C25.88378906 22.22705078 25.88378906 22.22705078 22.265625 22.1953125 C20.97011719 22.18886719 19.67460937 22.18242187 18.33984375 22.17578125 C16.97655981 22.15907193 15.61327856 22.14214206 14.25 22.125 C12.87110015 22.1149634 11.49219335 22.10583873 10.11328125 22.09765625 C6.74211277 22.07408165 3.37103436 22.03821072 0 22 C0 14.74 0 7.48 0 0 Z " fill="#F4F4F4" transform="translate(177,297)"/>
<path d="M0 0 C12.54 0 25.08 0 38 0 C38 4.29 38 8.58 38 13 C25.46 13 12.92 13 0 13 C0 8.71 0 4.42 0 0 Z " fill="#0B0B0B" transform="translate(0,346)"/>
<path d="M0 0 C12.21 0 24.42 0 37 0 C37 3.96 37 7.92 37 12 C24.79 12 12.58 12 0 12 C0 8.04 0 4.08 0 0 Z " fill="#000000" transform="translate(0,284)"/>
<path d="M0 0 C10.56 0 21.12 0 32 0 C32 4.29 32 8.58 32 13 C21.44 13 10.88 13 0 13 C0 8.71 0 4.42 0 0 Z " fill="#0D0D0D" transform="translate(0,314)"/>
<path d="M0 0 C2.0625 0.4375 2.0625 0.4375 4 1 C3.67 2.65 3.34 4.3 3 6 C1.68 5.67 0.36 5.34 -1 5 C-1 1 -1 1 0 0 Z " fill="#000000" transform="translate(576,100)"/>
</svg>
