<svg version="1.1" id="Layer_1" xmlns="http://www.w3.org/2000/svg" xmlns:xlink="http://www.w3.org/1999/xlink" x="0px" y="0px"
	 width="100%" viewBox="0 0 428 920" enable-background="new 0 0 428 920" xml:space="preserve">
<path fill="#000000" opacity="1.000000" stroke="none" 
	d="
M1.000000,423.000000 
	C1.000000,404.979095 1.000000,386.958221 1.327386,368.292358 
	C4.260262,366.702118 6.817571,365.140472 9.480681,364.932281 
	C16.253387,364.402832 23.075150,364.290649 29.874146,364.352997 
	C42.735950,364.470856 50.925587,371.573853 53.249462,384.281006 
	C53.566120,386.012482 53.954437,387.730835 54.309574,389.455261 
	C54.799072,389.386871 55.288574,389.318512 55.778076,389.250122 
	C55.896484,388.046814 56.120872,386.843048 56.115772,385.640259 
	C56.086918,378.830444 55.721897,372.007874 56.036991,365.215851 
	C56.246475,360.700378 54.635433,359.671021 50.342537,359.720367 
	C34.237190,359.905518 18.127222,359.688568 2.019085,359.177551 
	C2.010192,243.550201 2.006360,128.367676 1.950920,13.185171 
	C1.949928,11.123295 1.330737,9.061717 1.000000,7.000000 
	C1.000000,5.095223 1.000000,3.190447 1.000000,1.000000 
	C2.328534,1.000000 3.664304,1.000000 5.793350,1.298012 
	C8.064436,1.730582 9.542231,1.982780 11.020058,1.982975 
	C147.618942,2.000970 284.217834,2.003381 420.816711,1.958231 
	C422.544556,1.957660 424.272247,1.333233 426.000000,1.000000 
	C426.998779,1.000000 427.997589,1.000000 428.998169,1.000000 
	C429.000000,120.354225 429.000000,239.708450 428.546875,359.661743 
	C420.420959,360.260773 412.748199,360.260773 405.075439,360.260773 
	C405.055969,360.806458 405.036499,361.352142 405.017029,361.897858 
	C407.863647,362.219757 410.710144,362.542786 413.556946,362.863342 
	C421.379822,363.744232 424.473572,366.284882 424.667511,374.200806 
	C425.062042,390.307007 424.785492,406.429688 424.785492,422.768799 
	C396.798248,422.768799 369.068176,422.768799 341.142334,422.768799 
	C341.142334,405.984039 340.958221,389.369751 341.240479,372.763428 
	C341.341553,366.816193 344.665222,363.896423 350.662994,363.049500 
	C353.298065,362.677368 355.977356,362.620178 358.613953,362.256287 
	C359.345001,362.155365 359.994995,361.467529 361.616821,360.479706 
	C342.792694,360.479706 325.178864,360.479706 307.565063,360.479706 
	C307.529449,360.972565 307.493835,361.465424 307.458191,361.958282 
	C310.293304,362.268585 313.128998,362.573364 315.963348,362.890289 
	C323.668976,363.751801 326.395020,366.606628 326.893982,374.419556 
	C327.010651,376.246338 326.990143,378.083496 326.990448,379.915863 
	C326.995605,411.905884 326.996185,443.895905 326.989288,475.885925 
	C326.988861,477.884674 327.007477,479.889740 326.865417,481.881042 
	C326.287415,489.981018 324.050842,492.321075 315.973755,493.327545 
	C313.036102,493.693542 310.087860,493.974518 307.144440,494.294281 
	C307.187439,494.687683 307.230408,495.081055 307.273376,495.474426 
	C325.008484,495.474426 342.743561,495.474426 360.478668,495.474426 
	C360.494904,495.028778 360.511139,494.583130 360.527374,494.137512 
	C358.462952,493.982269 356.396515,493.850037 354.334442,493.667999 
	C343.212494,492.686188 341.122803,490.562378 341.017426,479.464874 
	C340.890869,466.137177 340.952728,452.807678 340.935760,439.478943 
	C340.930725,435.536346 340.934998,431.593750 340.934998,427.687897 
	C369.167786,427.687897 396.797699,427.687897 424.921600,427.687897 
	C424.921600,429.316376 424.921600,430.778931 424.921600,432.241516 
	C424.921570,447.570068 424.949890,462.898682 424.912659,478.227142 
	C424.882690,490.563995 422.527008,492.992004 410.152161,493.756531 
	C408.402069,493.864655 406.660767,494.115875 404.915405,494.300842 
	C404.954437,494.867218 404.993500,495.433624 405.032532,496.000000 
	C413.021698,496.000000 421.010834,496.000000 429.000000,496.000000 
	C429.000000,637.666687 429.000000,779.333313 429.000000,921.000000 
	C286.333344,921.000000 143.666672,921.000000 1.000000,921.000000 
	C1.000000,919.666626 1.000000,918.333313 1.291241,916.201416 
	C1.717068,913.591736 1.966353,911.780762 1.968718,909.969482 
	C1.996135,888.974731 1.983836,867.980042 1.986638,846.985291 
	C2.002228,730.181458 2.019082,613.377563 2.488002,496.456787 
	C20.579563,496.329987 38.219166,496.244476 55.857258,496.370422 
	C59.637764,496.397400 61.053162,495.343140 61.138550,491.290466 
	C61.309811,483.162170 62.220413,475.051178 62.699688,466.925629 
	C62.766918,465.785797 62.122543,464.603943 61.807564,463.441559 
	C59.755566,466.733673 59.009785,469.775177 57.964466,472.709991 
	C53.330830,485.719269 44.628441,491.818573 30.880278,491.819916 
	C25.721649,491.820404 20.529203,492.186279 15.414180,491.714020 
	C10.567244,491.266510 5.801470,489.939972 1.000003,489.000000 
	C1.000000,468.979095 1.000000,448.958221 1.440007,428.293274 
	C11.193001,427.732788 20.522449,427.500763 29.814505,427.985535 
	C39.795429,428.506226 43.922436,432.901337 45.094669,442.860901 
	C45.227345,443.988129 45.918579,445.049652 46.801052,447.279144 
	C48.973488,439.114868 47.861259,408.667847 45.790844,407.265411 
	C41.540081,421.283936 39.399437,422.839386 23.961809,422.950012 
	C16.308146,423.004822 8.653953,422.985687 1.000000,423.000000 
M238.550110,362.321106 
	C242.351624,362.671204 246.262894,362.565979 249.935410,363.451263 
	C264.787415,367.031403 273.725983,379.483398 274.690735,397.415405 
	C276.047943,422.643341 259.204163,438.473236 234.163467,435.565735 
	C233.242722,435.458832 232.247253,435.995392 231.286606,436.232086 
	C231.336563,436.928070 231.386520,437.624084 231.436493,438.320099 
	C236.603729,438.537872 241.790604,439.156525 246.934875,438.904755 
	C270.388611,437.756805 287.823853,422.411285 290.666443,400.716431 
	C293.210144,381.302551 284.195770,366.872162 265.322937,361.765594 
	C258.211609,359.841400 250.565384,359.277740 243.152679,359.209137 
	C226.519363,359.055176 209.879379,359.590088 193.242783,359.882507 
	C192.155472,359.901611 191.073807,360.241760 189.989532,360.432587 
	C190.000137,360.949921 190.010757,361.467255 190.021378,361.984619 
	C192.855286,362.287842 195.692596,362.562714 198.522476,362.899811 
	C206.194016,363.813599 208.589493,366.394165 208.990860,374.149658 
	C209.051086,375.313354 209.058884,376.480713 209.059006,377.646393 
	C209.062408,411.296295 209.072678,444.946167 209.039368,478.596039 
	C209.036911,481.080841 208.882507,483.590881 208.505829,486.044189 
	C207.869186,490.190796 205.219986,492.445587 201.131470,492.975769 
	C198.329041,493.339142 195.500000,493.495605 192.695465,493.845581 
	C191.752747,493.963226 190.848877,494.392395 189.927261,494.679169 
	C189.991745,495.041901 190.056229,495.404663 190.120728,495.767395 
	C210.066040,495.767395 230.011353,495.767395 249.956680,495.767395 
	C250.011063,495.336823 250.065460,494.906219 250.119843,494.475647 
	C249.025726,494.256989 247.940567,493.931213 246.835892,493.839081 
	C243.023361,493.521118 239.192383,493.395264 235.389694,492.994385 
	C227.185837,492.129456 224.268341,489.175995 223.448898,481.110107 
	C223.331482,479.954315 223.317841,478.784271 223.317612,477.620819 
	C223.311035,444.304108 223.300140,410.987366 223.338745,377.670685 
	C223.341431,375.351654 223.636536,373.021790 223.943588,370.716644 
	C224.576462,365.965240 227.219955,363.253143 232.122009,362.918182 
	C233.948563,362.793335 235.768616,362.573212 238.550110,362.321106 
M116.591347,363.794128 
	C130.279984,356.912201 146.146362,360.845154 154.195084,373.760681 
	C157.202103,378.585968 158.712509,384.341003 160.940353,389.657410 
	C161.334229,390.597351 161.901123,391.464813 162.388138,392.365723 
	C162.897217,392.207123 163.406311,392.048523 163.915390,391.889923 
	C163.292877,383.030090 162.748642,374.163055 161.934250,365.320923 
	C161.846817,364.371765 160.336884,363.197662 159.234451,362.751465 
	C143.356415,356.325134 127.326324,354.695587 111.379608,362.314850 
	C95.997253,369.664490 89.170921,385.292175 94.165367,401.569092 
	C96.693619,409.808655 102.012505,416.196381 109.116272,420.959106 
	C119.466736,427.898560 130.324356,434.145233 140.230545,441.656891 
	C145.214691,445.436249 149.578659,450.832550 152.477600,456.405609 
	C159.748230,470.382965 154.826660,487.302124 142.788376,492.833038 
	C130.456375,498.498932 114.385063,495.307709 105.176910,485.250183 
	C98.644402,478.115051 94.543076,469.655029 92.016243,460.372345 
	C91.634811,458.971130 91.012260,457.635559 90.501244,456.269653 
	C89.205978,457.465149 88.927406,458.376892 89.009514,459.254913 
	C89.861702,468.368011 90.918030,477.464996 91.589836,486.590546 
	C91.837425,489.953705 93.508812,491.574158 96.293434,492.857727 
	C109.747200,499.059204 123.815994,500.770966 138.199966,497.694092 
	C153.862000,494.343781 165.368164,485.578705 168.752060,469.218170 
	C172.141006,452.833099 165.311905,440.349976 151.737457,431.292999 
	C145.936722,427.422760 139.814651,424.026276 134.088043,420.054810 
	C127.013512,415.148499 119.384209,410.663269 113.443413,404.580994 
	C101.602852,392.458252 103.206917,373.730347 116.591347,363.794128 
z"/>
<path fill="#FCFCFC" opacity="1.000000" stroke="none" 
	d="
M429.000000,495.531342 
	C421.010834,496.000000 413.021698,496.000000 405.032532,496.000000 
	C404.993500,495.433624 404.954437,494.867218 404.915405,494.300842 
	C406.660767,494.115875 408.402069,493.864655 410.152161,493.756531 
	C422.527008,492.992004 424.882690,490.563995 424.912659,478.227142 
	C424.949890,462.898682 424.921570,447.570068 424.921600,432.241516 
	C424.921600,430.778931 424.921600,429.316376 424.921600,427.687897 
	C396.797699,427.687897 369.167786,427.687897 340.934998,427.687897 
	C340.934998,431.593750 340.930725,435.536346 340.935760,439.478943 
	C340.952728,452.807678 340.890869,466.137177 341.017426,479.464874 
	C341.122803,490.562378 343.212494,492.686188 354.334442,493.667999 
	C356.396515,493.850037 358.462952,493.982269 360.527374,494.137512 
	C360.511139,494.583130 360.494904,495.028778 360.478668,495.474426 
	C342.743561,495.474426 325.008484,495.474426 307.273376,495.474426 
	C307.230408,495.081055 307.187439,494.687683 307.144440,494.294281 
	C310.087860,493.974518 313.036102,493.693542 315.973755,493.327545 
	C324.050842,492.321075 326.287415,489.981018 326.865417,481.881042 
	C327.007477,479.889740 326.988861,477.884674 326.989288,475.885925 
	C326.996185,443.895905 326.995605,411.905884 326.990448,379.915863 
	C326.990143,378.083496 327.010651,376.246338 326.893982,374.419556 
	C326.395020,366.606628 323.668976,363.751801 315.963348,362.890289 
	C313.128998,362.573364 310.293304,362.268585 307.458191,361.958282 
	C307.493835,361.465424 307.529449,360.972565 307.565063,360.479706 
	C325.178864,360.479706 342.792694,360.479706 361.616821,360.479706 
	C359.994995,361.467529 359.345001,362.155365 358.613953,362.256287 
	C355.977356,362.620178 353.298065,362.677368 350.662994,363.049500 
	C344.665222,363.896423 341.341553,366.816193 341.240479,372.763428 
	C340.958221,389.369751 341.142334,405.984039 341.142334,422.768799 
	C369.068176,422.768799 396.798248,422.768799 424.785492,422.768799 
	C424.785492,406.429688 425.062042,390.307007 424.667511,374.200806 
	C424.473572,366.284882 421.379822,363.744232 413.556946,362.863342 
	C410.710144,362.542786 407.863647,362.219757 405.017029,361.897858 
	C405.036499,361.352142 405.055969,360.806458 405.075439,360.260773 
	C412.748199,360.260773 420.420959,360.260773 428.546875,360.130371 
	C429.000000,405.020905 429.000000,450.041779 429.000000,495.531342 
z"/>
<path fill="#FAFAFA" opacity="1.000000" stroke="none" 
	d="
M1.000003,489.437500 
	C5.801470,489.939972 10.567244,491.266510 15.414180,491.714020 
	C20.529203,492.186279 25.721649,491.820404 30.880278,491.819916 
	C44.628441,491.818573 53.330830,485.719269 57.964466,472.709991 
	C59.009785,469.775177 59.755566,466.733673 61.807564,463.441559 
	C62.122543,464.603943 62.766918,465.785797 62.699688,466.925629 
	C62.220413,475.051178 61.309811,483.162170 61.138550,491.290466 
	C61.053162,495.343140 59.637764,496.397400 55.857258,496.370422 
	C38.219166,496.244476 20.579563,496.329987 2.233417,496.305664 
	C1.350888,496.180939 1.175444,496.090485 1.000000,496.000000 
	C1.000000,493.958344 1.000000,491.916656 1.000003,489.437500 
z"/>
<path fill="#FAFAFA" opacity="1.000000" stroke="none" 
	d="
M2.018988,359.622345 
	C18.127222,359.688568 34.237190,359.905518 50.342537,359.720367 
	C54.635433,359.671021 56.246475,360.700378 56.036991,365.215851 
	C55.721897,372.007874 56.086918,378.830444 56.115772,385.640259 
	C56.120872,386.843048 55.896484,388.046814 55.778076,389.250122 
	C55.288574,389.318512 54.799072,389.386871 54.309574,389.455261 
	C53.954437,387.730835 53.566120,386.012482 53.249462,384.281006 
	C50.925587,371.573853 42.735950,364.470856 29.874146,364.352997 
	C23.075150,364.290649 16.253387,364.402832 9.480681,364.932281 
	C6.817571,365.140472 4.260262,366.702118 1.327386,367.823700 
	C1.000000,365.629425 1.000000,363.258881 1.260740,360.365906 
	C1.687316,359.769775 1.853152,359.696045 2.018988,359.622345 
z"/>
<path fill="#E9E9E9" opacity="1.000000" stroke="none" 
	d="
M1.000000,423.416656 
	C8.653953,422.985687 16.308146,423.004822 23.961809,422.950012 
	C39.399437,422.839386 41.540081,421.283936 45.790844,407.265411 
	C47.861259,408.667847 48.973488,439.114868 46.801052,447.279144 
	C45.918579,445.049652 45.227345,443.988129 45.094669,442.860901 
	C43.922436,432.901337 39.795429,428.506226 29.814505,427.985535 
	C20.522449,427.500763 11.193001,427.732788 1.440007,427.824615 
	C1.000000,426.611115 1.000000,425.222198 1.000000,423.416656 
z"/>
<path fill="#3B0707" opacity="1.000000" stroke="none" 
	d="
M425.531342,1.000000 
	C424.272247,1.333233 422.544556,1.957660 420.816711,1.958231 
	C284.217834,2.003381 147.618942,2.000970 11.020058,1.982975 
	C9.542231,1.982780 8.064436,1.730582 6.293313,1.298012 
	C145.687561,1.000000 285.375122,1.000000 425.531342,1.000000 
z"/>
<path fill="#190C0C" opacity="1.000000" stroke="none" 
	d="
M1.000000,496.468658 
	C1.175444,496.090485 1.350888,496.180939 1.780918,496.422577 
	C2.019082,613.377563 2.002228,730.181458 1.986638,846.985291 
	C1.983836,867.980042 1.996135,888.974731 1.968718,909.969482 
	C1.966353,911.780762 1.717068,913.591736 1.291241,915.701416 
	C1.000000,776.312439 1.000000,636.624878 1.000000,496.468658 
z"/>
<path fill="#150909" opacity="1.000000" stroke="none" 
	d="
M2.019085,359.177551 
	C1.853152,359.696045 1.687316,359.769775 1.260740,359.921753 
	C1.000000,242.645767 1.000000,125.291542 1.000000,7.468657 
	C1.330737,9.061717 1.949928,11.123295 1.950920,13.185171 
	C2.006360,128.367676 2.010192,243.550201 2.019085,359.177551 
z"/>
<path fill="#FAFAFA" opacity="1.000000" stroke="none" 
	d="
M238.070862,362.358826 
	C235.768616,362.573212 233.948563,362.793335 232.122009,362.918182 
	C227.219955,363.253143 224.576462,365.965240 223.943588,370.716644 
	C223.636536,373.021790 223.341431,375.351654 223.338745,377.670685 
	C223.300140,410.987366 223.311035,444.304108 223.317612,477.620819 
	C223.317841,478.784271 223.331482,479.954315 223.448898,481.110107 
	C224.268341,489.175995 227.185837,492.129456 235.389694,492.994385 
	C239.192383,493.395264 243.023361,493.521118 246.835892,493.839081 
	C247.940567,493.931213 249.025726,494.256989 250.119843,494.475647 
	C250.065460,494.906219 250.011063,495.336823 249.956680,495.767395 
	C230.011353,495.767395 210.066040,495.767395 190.120728,495.767395 
	C190.056229,495.404663 189.991745,495.041901 189.927261,494.679169 
	C190.848877,494.392395 191.752747,493.963226 192.695465,493.845581 
	C195.500000,493.495605 198.329041,493.339142 201.131470,492.975769 
	C205.219986,492.445587 207.869186,490.190796 208.505829,486.044189 
	C208.882507,483.590881 209.036911,481.080841 209.039368,478.596039 
	C209.072678,444.946167 209.062408,411.296295 209.059006,377.646393 
	C209.058884,376.480713 209.051086,375.313354 208.990860,374.149658 
	C208.589493,366.394165 206.194016,363.813599 198.522476,362.899811 
	C195.692596,362.562714 192.855286,362.287842 190.021378,361.984619 
	C190.010757,361.467255 190.000137,360.949921 189.989532,360.432587 
	C191.073807,360.241760 192.155472,359.901611 193.242783,359.882507 
	C209.879379,359.590088 226.519363,359.055176 243.152679,359.209137 
	C250.565384,359.277740 258.211609,359.841400 265.322937,361.765594 
	C284.195770,366.872162 293.210144,381.302551 290.666443,400.716431 
	C287.823853,422.411285 270.388611,437.756805 246.934875,438.904755 
	C241.790604,439.156525 236.603729,438.537872 231.436493,438.320099 
	C231.386520,437.624084 231.336563,436.928070 231.286606,436.232086 
	C232.247253,435.995392 233.242722,435.458832 234.163467,435.565735 
	C259.204163,438.473236 276.047943,422.643341 274.690735,397.415405 
	C273.725983,379.483398 264.787415,367.031403 249.935410,363.451263 
	C246.262894,362.565979 242.351624,362.671204 238.070862,362.358826 
z"/>
<path fill="#F8F8F8" opacity="1.000000" stroke="none" 
	d="
M116.255493,363.970764 
	C103.206917,373.730347 101.602852,392.458252 113.443413,404.580994 
	C119.384209,410.663269 127.013512,415.148499 134.088043,420.054810 
	C139.814651,424.026276 145.936722,427.422760 151.737457,431.292999 
	C165.311905,440.349976 172.141006,452.833099 168.752060,469.218170 
	C165.368164,485.578705 153.862000,494.343781 138.199966,497.694092 
	C123.815994,500.770966 109.747200,499.059204 96.293434,492.857727 
	C93.508812,491.574158 91.837425,489.953705 91.589836,486.590546 
	C90.918030,477.464996 89.861702,468.368011 89.009514,459.254913 
	C88.927406,458.376892 89.205978,457.465149 90.501244,456.269653 
	C91.012260,457.635559 91.634811,458.971130 92.016243,460.372345 
	C94.543076,469.655029 98.644402,478.115051 105.176910,485.250183 
	C114.385063,495.307709 130.456375,498.498932 142.788376,492.833038 
	C154.826660,487.302124 159.748230,470.382965 152.477600,456.405609 
	C149.578659,450.832550 145.214691,445.436249 140.230545,441.656891 
	C130.324356,434.145233 119.466736,427.898560 109.116272,420.959106 
	C102.012505,416.196381 96.693619,409.808655 94.165367,401.569092 
	C89.170921,385.292175 95.997253,369.664490 111.379608,362.314850 
	C127.326324,354.695587 143.356415,356.325134 159.234451,362.751465 
	C160.336884,363.197662 161.846817,364.371765 161.934250,365.320923 
	C162.748642,374.163055 163.292877,383.030090 163.915390,391.889923 
	C163.406311,392.048523 162.897217,392.207123 162.388138,392.365723 
	C161.901123,391.464813 161.334229,390.597351 160.940353,389.657410 
	C158.712509,384.341003 157.202103,378.585968 154.195084,373.760681 
	C146.146362,360.845154 130.279984,356.912201 116.255493,363.970764 
z"/>
</svg>