<svg version="1.1" id="Layer_1" xmlns="http://www.w3.org/2000/svg" xmlns:xlink="http://www.w3.org/1999/xlink" x="0px" y="0px"
	 width="100%" viewBox="0 0 425 917" enable-background="new 0 0 425 917" xml:space="preserve">
<path fill="#000000" opacity="1.000000" stroke="none" 
	d="
M1.000000,394.000000 
	C1.000000,263.021881 1.000000,132.043747 1.000000,1.032806 
	C142.621140,1.032806 284.242279,1.032806 425.931702,1.032806 
	C425.931702,306.570099 425.931702,612.140198 425.931702,917.855164 
	C284.453674,917.855164 142.907150,917.855164 1.000000,917.855164 
	C1.000000,788.975342 1.000000,659.950317 1.468560,530.466370 
	C5.096405,530.029114 8.255737,530.045349 11.414961,530.073853 
	C14.573844,530.102295 17.732540,530.155334 20.891460,530.174683 
	C23.732868,530.192017 26.574465,530.178345 29.415979,530.178345 
	C29.419931,529.512512 29.423883,528.846680 29.427835,528.180908 
	C28.056101,528.055054 26.686771,527.884888 25.312260,527.810303 
	C11.878487,527.081238 9.939007,525.044250 9.938093,511.584686 
	C9.935812,477.992889 9.924724,444.401123 9.944684,410.809326 
	C9.951064,400.071991 12.106792,397.759766 22.777391,396.674957 
	C25.023178,396.446625 27.254566,396.076721 29.492590,395.772034 
	C29.443943,395.181366 29.395296,394.590668 29.346649,394.000000 
	C19.897766,394.000000 10.448883,394.000000 1.000000,394.000000 
M252.997543,488.478241 
	C245.695343,478.574768 238.393158,468.671265 231.873901,459.829620 
	C238.281265,453.685028 245.401596,448.683533 250.118332,441.988647 
	C263.911041,422.411438 255.385178,399.281555 232.970612,394.455688 
	C226.714142,393.108643 220.073029,393.210907 213.609955,393.228302 
	C198.304031,393.269440 182.998978,393.653992 167.693832,393.914856 
	C166.352219,393.937744 165.012497,394.072052 163.671906,394.154602 
	C163.633972,394.714325 163.596024,395.274048 163.558075,395.833771 
	C166.441116,396.183105 169.322998,396.542236 172.207413,396.879761 
	C179.438919,397.726105 182.176239,400.457428 182.839752,407.641846 
	C183.007797,409.461548 182.986557,411.302277 182.987015,413.133362 
	C182.994919,445.779785 182.995956,478.426208 182.984909,511.072632 
	C182.984238,513.069763 183.014801,515.083801 182.783173,517.060974 
	C181.998032,523.762390 179.400925,526.348755 172.650696,527.237244 
	C169.510452,527.650574 166.353729,527.938904 163.204483,528.283875 
	C163.241989,528.710510 163.279480,529.137207 163.316986,529.563843 
	C180.875153,529.563843 198.433319,529.563843 215.991486,529.563843 
	C216.021881,529.133789 216.052261,528.703674 216.082657,528.273621 
	C212.922211,527.911987 209.753693,527.609131 206.602966,527.176758 
	C199.862885,526.251831 197.347412,524.300354 197.234222,517.779846 
	C196.919571,499.653595 197.125031,481.518311 197.125031,463.189026 
	C202.962097,463.189026 208.598465,463.584106 214.144806,463.047974 
	C217.745361,462.699890 219.742249,463.513550 221.850739,466.518280 
	C232.255493,481.345764 242.719711,496.144501 253.656754,510.579224 
	C258.243896,516.633362 263.853210,521.973633 269.413666,527.195679 
	C271.272217,528.941101 274.387695,530.048523 276.989105,530.171936 
	C284.966187,530.550171 292.972839,530.335327 300.967468,530.279297 
	C302.038635,530.271790 303.106903,529.851135 304.176514,529.621765 
	C303.600189,528.299377 303.087555,527.896912 302.549927,527.860229 
	C294.059357,527.280090 286.531616,523.919189 280.658112,518.124390 
	C271.213196,508.806152 262.474548,498.772003 252.997543,488.478241 
M392.497040,466.486755 
	C392.413788,458.049255 392.330536,449.611725 392.247284,441.174225 
	C391.697937,441.173370 391.148621,441.172516 390.599304,441.171692 
	C390.381744,441.748779 390.059021,442.308838 389.962372,442.905518 
	C388.419159,452.430206 385.793945,455.817963 376.403992,456.479584 
	C365.670593,457.235870 354.842987,456.654755 343.837189,456.654755 
	C343.837189,440.752167 343.704376,424.959869 343.899902,409.171631 
	C343.982941,402.468109 346.464142,399.613525 353.128448,399.094360 
	C361.239899,398.462433 369.461334,398.059357 377.554291,398.655457 
	C389.136810,399.508636 396.149078,406.723907 398.095154,418.266693 
	C398.389465,420.012268 398.797791,421.738647 399.153381,423.473877 
	C399.630341,423.386597 400.107300,423.299286 400.584259,423.212006 
	C400.584259,413.598785 400.584259,403.985535 400.584259,394.446228 
	C370.191376,394.446228 340.297119,394.446228 310.048187,394.446228 
	C310.538818,395.355103 310.646271,395.825104 310.834778,395.860260 
	C312.287689,396.131134 313.750366,396.380829 315.221039,396.520538 
	C327.395996,397.677307 329.549927,399.971893 329.677704,411.990631 
	C329.683044,412.490540 329.678436,412.990570 329.678436,413.490540 
	C329.678436,445.821960 329.685120,478.153412 329.663452,510.484833 
	C329.662018,512.643372 329.566223,514.816345 329.307312,516.957581 
	C328.398499,524.473755 326.488129,526.368774 319.045837,527.313599 
	C316.119293,527.684998 313.186768,528.009460 310.256989,528.355286 
	C310.274445,528.790833 310.291901,529.226379 310.309357,529.661926 
	C311.336090,529.880127 312.362579,530.287720 313.389557,530.288879 
	C342.721130,530.322998 372.052856,530.277527 401.384186,530.367126 
	C404.896301,530.377869 405.896545,529.042847 406.026764,525.646912 
	C406.351746,517.172546 407.142792,508.716797 407.640900,500.247345 
	C407.697052,499.292358 407.075470,498.297485 406.768158,497.321106 
	C404.755554,500.463837 404.018097,503.490204 402.919525,506.379242 
	C399.020599,516.632690 392.764130,524.677551 381.009613,525.571472 
	C372.401703,526.226135 363.668396,526.057739 355.045502,525.464050 
	C345.894501,524.833923 343.829254,522.309692 343.757690,513.137390 
	C343.628937,496.639404 343.719666,480.139648 343.742462,463.640656 
	C343.743317,463.021667 343.993134,462.403015 344.110474,461.860352 
	C354.465790,461.860352 364.614197,461.528168 374.730530,461.955505 
	C384.482880,462.367493 388.927612,467.125031 390.074707,476.886414 
	C390.203644,477.983521 390.890747,479.015045 391.319000,480.076965 
	C391.722900,479.956757 392.126831,479.836548 392.530731,479.716339 
	C392.530731,475.637726 392.530731,471.559082 392.497040,466.486755 
M142.235870,507.038422 
	C142.479141,503.882782 142.722427,500.727173 142.965698,497.571533 
	C142.393158,497.529419 141.820602,497.487305 141.248062,497.445160 
	C140.206894,500.699005 139.348724,504.025513 138.090561,507.193146 
	C134.176178,517.048462 127.928589,524.685059 116.643532,525.544250 
	C108.036125,526.199646 99.309891,526.046082 90.683929,525.501526 
	C81.480255,524.920349 79.172348,522.026367 79.092583,512.827209 
	C79.017456,504.163330 79.076347,495.498260 79.076324,486.833740 
	C79.076294,478.536469 79.076317,470.239197 79.076317,462.041901 
	C90.470123,462.041901 101.441498,461.598572 112.356346,462.193024 
	C120.023499,462.610596 124.059258,467.361633 125.319473,475.044159 
	C125.596657,476.733856 126.110374,478.384796 126.515167,480.053589 
	C126.869766,479.955688 127.224365,479.857758 127.578964,479.759827 
	C127.578964,466.916809 127.578964,454.073822 127.578964,441.230804 
	C127.144318,441.154480 126.709671,441.078156 126.275024,441.001831 
	C125.914276,442.089783 125.399071,443.152679 125.217651,444.269775 
	C123.970985,451.946259 121.608398,455.441498 113.986313,455.968384 
	C102.476631,456.764099 90.871292,456.175995 79.127907,456.175995 
	C79.127907,440.732056 78.973114,425.089203 79.198868,409.451874 
	C79.298775,402.531677 81.923065,399.614807 88.799973,399.061096 
	C96.746468,398.421295 104.793541,398.066559 112.735405,398.566223 
	C123.805374,399.262604 130.505890,405.551300 133.207443,416.461121 
	C133.773468,418.746979 134.170593,421.074677 134.645569,423.383087 
	C135.069717,423.341248 135.493881,423.299377 135.918030,423.257538 
	C135.918030,413.620331 135.918030,403.983093 135.918030,394.489471 
	C105.666313,394.489471 75.820938,394.489471 45.975559,394.489471 
	C45.928089,394.954132 45.880619,395.418793 45.833145,395.883453 
	C48.671268,396.220367 51.510082,396.551575 54.347378,396.895294 
	C61.854134,397.804596 64.510452,400.602112 64.971985,408.132751 
	C65.063629,409.628052 65.060814,411.130585 65.061020,412.629791 
	C65.065643,445.621643 65.068909,478.613525 65.054565,511.605377 
	C65.053627,513.769348 65.080887,515.955872 64.799263,518.092896 
	C64.031967,523.915466 61.698994,526.276245 55.910606,527.116760 
	C53.280136,527.498779 50.600842,527.536133 47.961243,527.868958 
	C47.201870,527.964722 46.503651,528.545410 45.777393,528.903809 
	C47.642578,530.155396 49.342041,530.297668 51.041576,530.298523 
	C79.034660,530.312317 107.028297,530.221741 135.020294,530.395630 
	C139.561798,530.423828 141.699875,529.557983 141.438614,524.419312 
	C141.161041,518.959351 141.872818,513.449097 142.235870,507.038422 
z"/>
<path fill="#FBFBFB" opacity="1.000000" stroke="none" 
	d="
M1.000000,394.468658 
	C10.448883,394.000000 19.897766,394.000000 29.346649,394.000000 
	C29.395296,394.590668 29.443943,395.181366 29.492590,395.772034 
	C27.254566,396.076721 25.023178,396.446625 22.777391,396.674957 
	C12.106792,397.759766 9.951064,400.071991 9.944684,410.809326 
	C9.924724,444.401123 9.935812,477.992889 9.938093,511.584686 
	C9.939007,525.044250 11.878487,527.081238 25.312260,527.810303 
	C26.686771,527.884888 28.056101,528.055054 29.427835,528.180908 
	C29.423883,528.846680 29.419931,529.512512 29.415979,530.178345 
	C26.574465,530.178345 23.732868,530.192017 20.891460,530.174683 
	C17.732540,530.155334 14.573844,530.102295 11.414961,530.073853 
	C8.255737,530.045349 5.096405,530.029114 1.468560,530.003723 
	C1.000000,484.979095 1.000000,439.958221 1.000000,394.468658 
z"/>
<path fill="#FBFBFB" opacity="1.000000" stroke="none" 
	d="
M253.217529,488.759277 
	C262.474548,498.772003 271.213196,508.806152 280.658112,518.124390 
	C286.531616,523.919189 294.059357,527.280090 302.549927,527.860229 
	C303.087555,527.896912 303.600189,528.299377 304.176514,529.621765 
	C303.106903,529.851135 302.038635,530.271790 300.967468,530.279297 
	C292.972839,530.335327 284.966187,530.550171 276.989105,530.171936 
	C274.387695,530.048523 271.272217,528.941101 269.413666,527.195679 
	C263.853210,521.973633 258.243896,516.633362 253.656754,510.579224 
	C242.719711,496.144501 232.255493,481.345764 221.850739,466.518280 
	C219.742249,463.513550 217.745361,462.699890 214.144806,463.047974 
	C208.598465,463.584106 202.962097,463.189026 197.125031,463.189026 
	C197.125031,481.518311 196.919571,499.653595 197.234222,517.779846 
	C197.347412,524.300354 199.862885,526.251831 206.602966,527.176758 
	C209.753693,527.609131 212.922211,527.911987 216.082657,528.273621 
	C216.052261,528.703674 216.021881,529.133789 215.991486,529.563843 
	C198.433319,529.563843 180.875153,529.563843 163.316986,529.563843 
	C163.279480,529.137207 163.241989,528.710510 163.204483,528.283875 
	C166.353729,527.938904 169.510452,527.650574 172.650696,527.237244 
	C179.400925,526.348755 181.998032,523.762390 182.783173,517.060974 
	C183.014801,515.083801 182.984238,513.069763 182.984909,511.072632 
	C182.995956,478.426208 182.994919,445.779785 182.987015,413.133362 
	C182.986557,411.302277 183.007797,409.461548 182.839752,407.641846 
	C182.176239,400.457428 179.438919,397.726105 172.207413,396.879761 
	C169.322998,396.542236 166.441116,396.183105 163.558075,395.833771 
	C163.596024,395.274048 163.633972,394.714325 163.671906,394.154602 
	C165.012497,394.072052 166.352219,393.937744 167.693832,393.914856 
	C182.998978,393.653992 198.304031,393.269440 213.609955,393.228302 
	C220.073029,393.210907 226.714142,393.108643 232.970612,394.455688 
	C255.385178,399.281555 263.911041,422.411438 250.118332,441.988647 
	C245.401596,448.683533 238.281265,453.685028 231.873901,459.829620 
	C238.393158,468.671265 245.695343,478.574768 253.217529,488.759277 
M240.103424,415.653473 
	C238.505249,407.961578 234.355545,401.714020 226.956726,399.359161 
	C220.803009,397.400574 213.977600,396.817932 207.468231,396.911591 
	C200.537292,397.011292 197.377228,400.337036 197.236542,407.296631 
	C196.897476,424.067841 197.126648,440.850555 197.126648,457.898895 
	C205.000809,457.898895 212.666992,458.610077 220.147568,457.734894 
	C231.847244,456.366089 239.243637,449.027618 240.661346,437.290192 
	C241.485489,430.467010 240.483704,423.423248 240.103424,415.653473 
z"/>
<path fill="#F9F9F9" opacity="1.000000" stroke="none" 
	d="
M392.513885,466.983612 
	C392.530731,471.559082 392.530731,475.637726 392.530731,479.716339 
	C392.126831,479.836548 391.722900,479.956757 391.319000,480.076965 
	C390.890747,479.015045 390.203644,477.983521 390.074707,476.886414 
	C388.927612,467.125031 384.482880,462.367493 374.730530,461.955505 
	C364.614197,461.528168 354.465790,461.860352 344.110474,461.860352 
	C343.993134,462.403015 343.743317,463.021667 343.742462,463.640656 
	C343.719666,480.139648 343.628937,496.639404 343.757690,513.137390 
	C343.829254,522.309692 345.894501,524.833923 355.045502,525.464050 
	C363.668396,526.057739 372.401703,526.226135 381.009613,525.571472 
	C392.764130,524.677551 399.020599,516.632690 402.919525,506.379242 
	C404.018097,503.490204 404.755554,500.463837 406.768158,497.321106 
	C407.075470,498.297485 407.697052,499.292358 407.640900,500.247345 
	C407.142792,508.716797 406.351746,517.172546 406.026764,525.646912 
	C405.896545,529.042847 404.896301,530.377869 401.384186,530.367126 
	C372.052856,530.277527 342.721130,530.322998 313.389557,530.288879 
	C312.362579,530.287720 311.336090,529.880127 310.309357,529.661926 
	C310.291901,529.226379 310.274445,528.790833 310.256989,528.355286 
	C313.186768,528.009460 316.119293,527.684998 319.045837,527.313599 
	C326.488129,526.368774 328.398499,524.473755 329.307312,516.957581 
	C329.566223,514.816345 329.662018,512.643372 329.663452,510.484833 
	C329.685120,478.153412 329.678436,445.821960 329.678436,413.490540 
	C329.678436,412.990570 329.683044,412.490540 329.677704,411.990631 
	C329.549927,399.971893 327.395996,397.677307 315.221039,396.520538 
	C313.750366,396.380829 312.287689,396.131134 310.834778,395.860260 
	C310.646271,395.825104 310.538818,395.355103 310.048187,394.446228 
	C340.297119,394.446228 370.191376,394.446228 400.584259,394.446228 
	C400.584259,403.985535 400.584259,413.598785 400.584259,423.212006 
	C400.107300,423.299286 399.630341,423.386597 399.153381,423.473877 
	C398.797791,421.738647 398.389465,420.012268 398.095154,418.266693 
	C396.149078,406.723907 389.136810,399.508636 377.554291,398.655457 
	C369.461334,398.059357 361.239899,398.462433 353.128448,399.094360 
	C346.464142,399.613525 343.982941,402.468109 343.899902,409.171631 
	C343.704376,424.959869 343.837189,440.752167 343.837189,456.654755 
	C354.842987,456.654755 365.670593,457.235870 376.403992,456.479584 
	C385.793945,455.817963 388.419159,452.430206 389.962372,442.905518 
	C390.059021,442.308838 390.381744,441.748779 390.599304,441.171692 
	C391.148621,441.172516 391.697937,441.173370 392.247284,441.174225 
	C392.330536,449.611725 392.413788,458.049255 392.513885,466.983612 
z"/>
<path fill="#FCFCFC" opacity="1.000000" stroke="none" 
	d="
M142.194214,507.499634 
	C141.872818,513.449097 141.161041,518.959351 141.438614,524.419312 
	C141.699875,529.557983 139.561798,530.423828 135.020294,530.395630 
	C107.028297,530.221741 79.034660,530.312317 51.041576,530.298523 
	C49.342041,530.297668 47.642578,530.155396 45.777393,528.903809 
	C46.503651,528.545410 47.201870,527.964722 47.961243,527.868958 
	C50.600842,527.536133 53.280136,527.498779 55.910606,527.116760 
	C61.698994,526.276245 64.031967,523.915466 64.799263,518.092896 
	C65.080887,515.955872 65.053627,513.769348 65.054565,511.605377 
	C65.068909,478.613525 65.065643,445.621643 65.061020,412.629791 
	C65.060814,411.130585 65.063629,409.628052 64.971985,408.132751 
	C64.510452,400.602112 61.854134,397.804596 54.347378,396.895294 
	C51.510082,396.551575 48.671268,396.220367 45.833145,395.883453 
	C45.880619,395.418793 45.928089,394.954132 45.975559,394.489471 
	C75.820938,394.489471 105.666313,394.489471 135.918030,394.489471 
	C135.918030,403.983093 135.918030,413.620331 135.918030,423.257538 
	C135.493881,423.299377 135.069717,423.341248 134.645569,423.383087 
	C134.170593,421.074677 133.773468,418.746979 133.207443,416.461121 
	C130.505890,405.551300 123.805374,399.262604 112.735405,398.566223 
	C104.793541,398.066559 96.746468,398.421295 88.799973,399.061096 
	C81.923065,399.614807 79.298775,402.531677 79.198868,409.451874 
	C78.973114,425.089203 79.127907,440.732056 79.127907,456.175995 
	C90.871292,456.175995 102.476631,456.764099 113.986313,455.968384 
	C121.608398,455.441498 123.970985,451.946259 125.217651,444.269775 
	C125.399071,443.152679 125.914276,442.089783 126.275024,441.001831 
	C126.709671,441.078156 127.144318,441.154480 127.578964,441.230804 
	C127.578964,454.073822 127.578964,466.916809 127.578964,479.759827 
	C127.224365,479.857758 126.869766,479.955688 126.515167,480.053589 
	C126.110374,478.384796 125.596657,476.733856 125.319473,475.044159 
	C124.059258,467.361633 120.023499,462.610596 112.356346,462.193024 
	C101.441498,461.598572 90.470123,462.041901 79.076317,462.041901 
	C79.076317,470.239197 79.076294,478.536469 79.076324,486.833740 
	C79.076347,495.498260 79.017456,504.163330 79.092583,512.827209 
	C79.172348,522.026367 81.480255,524.920349 90.683929,525.501526 
	C99.309891,526.046082 108.036125,526.199646 116.643532,525.544250 
	C127.928589,524.685059 134.176178,517.048462 138.090561,507.193146 
	C139.348724,504.025513 140.206894,500.699005 141.248062,497.445160 
	C141.820602,497.487305 142.393158,497.529419 142.965698,497.571533 
	C142.722427,500.727173 142.479141,503.882782 142.194214,507.499634 
z"/>
<path fill="#020202" opacity="1.000000" stroke="none" 
	d="
M240.203476,416.066101 
	C240.483704,423.423248 241.485489,430.467010 240.661346,437.290192 
	C239.243637,449.027618 231.847244,456.366089 220.147568,457.734894 
	C212.666992,458.610077 205.000809,457.898895 197.126648,457.898895 
	C197.126648,440.850555 196.897476,424.067841 197.236542,407.296631 
	C197.377228,400.337036 200.537292,397.011292 207.468231,396.911591 
	C213.977600,396.817932 220.803009,397.400574 226.956726,399.359161 
	C234.355545,401.714020 238.505249,407.961578 240.203476,416.066101 
z"/>
</svg>