<svg version="1.1" id="Layer_1" xmlns="http://www.w3.org/2000/svg" xmlns:xlink="http://www.w3.org/1999/xlink" x="0px" y="0px"
	 width="100%" viewBox="0 0 428 919" enable-background="new 0 0 428 919" xml:space="preserve">
<path fill="#000000" opacity="1.000000" stroke="none" 
	d="
M429.000000,496.000000 
	C429.000000,637.309875 429.000000,778.619690 429.000000,919.964783 
	C286.380524,919.964783 143.761063,919.964783 1.070792,919.964783 
	C1.070792,613.764771 1.070792,307.529541 1.070792,1.147151 
	C143.544724,1.147151 286.089661,1.147151 429.000000,1.147151 
	C429.000000,120.024651 429.000000,239.049683 428.537354,358.456940 
	C416.946625,358.839172 405.818481,358.839172 394.690369,358.839172 
	C394.645630,359.482208 394.600891,360.125275 394.556152,360.768311 
	C397.286896,361.140686 400.012604,361.555939 402.749359,361.877197 
	C410.255585,362.758392 412.613525,364.974335 413.600159,372.375336 
	C413.840668,374.179260 413.813934,376.026276 413.814575,377.853546 
	C413.826111,410.787628 413.834991,443.721680 413.797302,476.655731 
	C413.794678,478.966766 413.426147,481.277557 413.225647,483.588226 
	C412.764557,488.900574 409.730133,491.580414 404.554901,492.122284 
	C401.231445,492.470245 397.914795,492.883362 394.595093,493.267273 
	C394.574219,493.762970 394.553345,494.258636 394.532471,494.754303 
	C396.114655,494.939484 397.693542,495.246674 399.279633,495.289856 
	C409.185547,495.559357 419.093018,495.769928 429.000000,496.000000 
M218.703659,402.672028 
	C211.256729,387.027740 203.809784,371.383453 195.742004,354.434906 
	C194.172165,357.312042 193.210419,358.769073 192.539490,360.349548 
	C179.646011,390.721802 166.873367,421.145691 153.871704,451.471436 
	C149.500275,461.667603 144.813995,471.748230 139.800125,481.642761 
	C136.359924,488.431793 130.620758,492.477570 122.679291,492.813080 
	C121.739883,492.852814 120.822189,493.406494 119.894424,493.721893 
	C119.959679,493.976654 120.024933,494.231384 120.090187,494.486145 
	C137.353973,494.486145 154.617752,494.486145 171.881531,494.486145 
	C171.902756,494.040833 171.923996,493.595520 171.945221,493.150208 
	C170.537354,493.021698 169.130493,492.881042 167.721481,492.766510 
	C150.276657,491.348022 145.721161,483.995087 152.418701,467.902039 
	C156.494781,458.107941 160.795761,448.406403 164.781158,438.576324 
	C165.811462,436.035065 167.042908,435.078644 169.859650,435.107727 
	C184.681427,435.260803 199.506775,435.276337 214.328079,435.102051 
	C217.501877,435.064728 219.028961,436.155640 220.271439,438.992401 
	C223.198868,445.676208 226.577835,452.160553 229.626770,458.793304 
	C233.158859,466.477142 236.930908,474.086975 239.847580,482.005615 
	C242.097977,488.115326 239.857773,491.041046 233.458344,492.091675 
	C230.363205,492.599854 227.238983,492.930817 224.127930,493.342010 
	C224.172409,493.791412 224.216873,494.240814 224.261353,494.690216 
	C240.969238,494.690216 257.677124,494.690216 274.650269,494.690216 
	C274.273010,493.813110 274.168427,493.273010 274.016663,493.259399 
	C262.983398,492.271454 257.861206,484.360382 253.637589,475.623688 
	C242.012100,451.576111 230.522949,427.462646 218.703659,402.672028 
M347.166748,429.961578 
	C350.751465,432.114471 355.139618,433.591614 357.685333,436.618347 
	C360.032196,439.408722 360.400543,443.863159 361.640381,447.584625 
	C361.972137,447.444061 362.303864,447.303497 362.635620,447.162933 
	C362.635620,434.474426 362.635620,421.785889 362.635620,409.097382 
	C362.229187,408.973602 361.822754,408.849854 361.416321,408.726105 
	C360.955933,409.781921 360.209290,410.804535 360.082520,411.899017 
	C359.361603,418.121857 356.014374,422.568146 349.921997,423.177185 
	C338.948212,424.274261 327.878998,424.416748 316.755585,424.962585 
	C316.755585,407.100281 316.566559,390.461578 316.848602,373.830872 
	C316.961334,367.182556 319.723694,364.449371 326.348083,363.982971 
	C334.139557,363.434448 342.010132,363.037903 349.789398,363.511597 
	C361.873199,364.247345 369.310303,371.812225 371.158539,384.046356 
	C371.381714,385.523621 371.811310,386.969727 372.145233,388.430267 
	C372.666046,388.397034 373.186859,388.363800 373.707672,388.330536 
	C373.804901,386.814789 373.996490,385.298187 373.983093,383.783386 
	C373.924225,377.121307 373.604492,370.454254 373.786285,363.800110 
	C373.892731,359.903961 372.676941,358.706329 368.681854,358.732147 
	C341.691345,358.906769 314.699158,358.817169 287.707520,358.839630 
	C286.219604,358.840851 284.731873,359.079376 283.244049,359.207428 
	C283.224304,359.742950 283.204529,360.278442 283.184784,360.813965 
	C285.474670,361.112732 287.760010,361.453094 290.055176,361.703064 
	C299.803955,362.764771 302.043488,365.133606 302.475555,374.929657 
	C302.512207,375.761200 302.487213,376.595581 302.487213,377.428650 
	C302.487579,410.418427 302.499237,443.408203 302.465424,476.397949 
	C302.462708,479.055481 302.311310,481.735870 301.939514,484.364716 
	C301.336334,488.630035 298.819977,491.294189 294.509308,491.919556 
	C291.385040,492.372803 288.211609,492.479156 285.076691,492.872284 
	C284.328064,492.966187 283.645508,493.586792 281.782471,494.575562 
	C303.369415,494.575562 323.568329,494.575562 343.767273,494.575562 
	C343.786743,494.126526 343.806213,493.677490 343.825684,493.228424 
	C339.152191,492.849030 334.475647,492.503784 329.805878,492.083130 
	C319.904175,491.191193 316.946777,488.261383 316.580170,478.329346 
	C316.322174,471.340912 316.515656,464.335693 316.513275,457.337952 
	C316.510101,448.054565 316.512482,438.771179 316.512482,429.836273 
	C326.775330,429.836273 336.548706,429.836273 347.166748,429.961578 
M58.129444,426.320984 
	C65.887367,431.458496 73.940536,436.207794 81.330818,441.828644 
	C91.268356,449.386871 95.856293,459.763916 94.901184,472.363098 
	C94.300102,480.292358 91.214378,486.803802 83.999519,490.851288 
	C72.721802,497.178009 56.172401,495.195526 46.766285,486.299683 
	C39.051113,479.003082 34.404915,469.926453 31.659914,459.769867 
	C31.241228,458.220673 30.511366,456.755646 29.514513,454.196960 
	C28.750904,456.013916 28.262287,456.603485 28.311817,457.143738 
	C29.208529,466.925140 29.986990,476.724915 31.280666,486.455627 
	C31.523626,488.283142 33.539776,490.497528 35.314102,491.399811 
	C48.714283,498.213837 62.968132,499.583313 77.573372,496.766663 
	C94.212921,493.557678 105.287468,482.736847 108.333153,467.334106 
	C111.243088,452.617920 105.248001,439.632904 90.838844,430.104980 
	C82.106758,424.330933 72.977432,419.141998 64.402214,413.152405 
	C59.419651,409.672180 54.552265,405.638855 50.740822,400.953308 
	C43.431896,391.968201 43.219585,378.302094 49.320972,369.151794 
	C54.806385,360.925293 65.644188,357.574829 77.533539,360.643311 
	C91.081436,364.139923 96.413841,374.784149 99.998383,386.879059 
	C100.452248,388.410492 101.013184,389.910217 101.846664,392.378784 
	C102.733810,390.764221 103.153282,390.362030 103.134979,389.980865 
	C102.751625,381.993713 102.485916,373.993469 101.752411,366.036835 
	C101.608406,364.474884 99.924835,362.351532 98.432182,361.726074 
	C83.632286,355.524750 68.488464,353.952026 53.314800,360.159332 
	C31.470835,369.095276 25.013617,393.754364 40.172302,411.919922 
	C44.846291,417.520966 51.657898,421.338257 58.129444,426.320984 
z"/>
<path fill="#FBFBFB" opacity="1.000000" stroke="none" 
	d="
M429.000000,495.531311 
	C419.093018,495.769928 409.185547,495.559357 399.279633,495.289856 
	C397.693542,495.246674 396.114655,494.939484 394.532471,494.754303 
	C394.553345,494.258636 394.574219,493.762970 394.595093,493.267273 
	C397.914795,492.883362 401.231445,492.470245 404.554901,492.122284 
	C409.730133,491.580414 412.764557,488.900574 413.225647,483.588226 
	C413.426147,481.277557 413.794678,478.966766 413.797302,476.655731 
	C413.834991,443.721680 413.826111,410.787628 413.814575,377.853546 
	C413.813934,376.026276 413.840668,374.179260 413.600159,372.375336 
	C412.613525,364.974335 410.255585,362.758392 402.749359,361.877197 
	C400.012604,361.555939 397.286896,361.140686 394.556152,360.768311 
	C394.600891,360.125275 394.645630,359.482208 394.690369,358.839172 
	C405.818481,358.839172 416.946625,358.839172 428.537354,358.919586 
	C429.000000,404.354218 429.000000,449.708466 429.000000,495.531311 
z"/>
<path fill="#F9F9F9" opacity="1.000000" stroke="none" 
	d="
M218.841766,403.023621 
	C230.522949,427.462646 242.012100,451.576111 253.637589,475.623688 
	C257.861206,484.360382 262.983398,492.271454 274.016663,493.259399 
	C274.168427,493.273010 274.273010,493.813110 274.650269,494.690216 
	C257.677124,494.690216 240.969238,494.690216 224.261353,494.690216 
	C224.216873,494.240814 224.172409,493.791412 224.127930,493.342010 
	C227.238983,492.930817 230.363205,492.599854 233.458344,492.091675 
	C239.857773,491.041046 242.097977,488.115326 239.847580,482.005615 
	C236.930908,474.086975 233.158859,466.477142 229.626770,458.793304 
	C226.577835,452.160553 223.198868,445.676208 220.271439,438.992401 
	C219.028961,436.155640 217.501877,435.064728 214.328079,435.102051 
	C199.506775,435.276337 184.681427,435.260803 169.859650,435.107727 
	C167.042908,435.078644 165.811462,436.035065 164.781158,438.576324 
	C160.795761,448.406403 156.494781,458.107941 152.418701,467.902039 
	C145.721161,483.995087 150.276657,491.348022 167.721481,492.766510 
	C169.130493,492.881042 170.537354,493.021698 171.945221,493.150208 
	C171.923996,493.595520 171.902756,494.040833 171.881531,494.486145 
	C154.617752,494.486145 137.353973,494.486145 120.090187,494.486145 
	C120.024933,494.231384 119.959679,493.976654 119.894424,493.721893 
	C120.822189,493.406494 121.739883,492.852814 122.679291,492.813080 
	C130.620758,492.477570 136.359924,488.431793 139.800125,481.642761 
	C144.813995,471.748230 149.500275,461.667603 153.871704,451.471436 
	C166.873367,421.145691 179.646011,390.721802 192.539490,360.349548 
	C193.210419,358.769073 194.172165,357.312042 195.742004,354.434906 
	C203.809784,371.383453 211.256729,387.027740 218.841766,403.023621 
M208.368530,430.924957 
	C210.806412,430.924957 213.244308,430.924957 216.380219,430.924957 
	C207.779449,412.783478 199.454361,395.223511 190.810226,376.990570 
	C183.027939,395.460114 175.657761,412.951630 168.084549,430.924957 
	C181.787445,430.924957 194.596115,430.924957 208.368530,430.924957 
z"/>
<path fill="#FBFBFB" opacity="1.000000" stroke="none" 
	d="
M346.744446,429.898926 
	C336.548706,429.836273 326.775330,429.836273 316.512482,429.836273 
	C316.512482,438.771179 316.510101,448.054565 316.513275,457.337952 
	C316.515656,464.335693 316.322174,471.340912 316.580170,478.329346 
	C316.946777,488.261383 319.904175,491.191193 329.805878,492.083130 
	C334.475647,492.503784 339.152191,492.849030 343.825684,493.228424 
	C343.806213,493.677490 343.786743,494.126526 343.767273,494.575562 
	C323.568329,494.575562 303.369415,494.575562 281.782471,494.575562 
	C283.645508,493.586792 284.328064,492.966187 285.076691,492.872284 
	C288.211609,492.479156 291.385040,492.372803 294.509308,491.919556 
	C298.819977,491.294189 301.336334,488.630035 301.939514,484.364716 
	C302.311310,481.735870 302.462708,479.055481 302.465424,476.397949 
	C302.499237,443.408203 302.487579,410.418427 302.487213,377.428650 
	C302.487213,376.595581 302.512207,375.761200 302.475555,374.929657 
	C302.043488,365.133606 299.803955,362.764771 290.055176,361.703064 
	C287.760010,361.453094 285.474670,361.112732 283.184784,360.813965 
	C283.204529,360.278442 283.224304,359.742950 283.244049,359.207428 
	C284.731873,359.079376 286.219604,358.840851 287.707520,358.839630 
	C314.699158,358.817169 341.691345,358.906769 368.681854,358.732147 
	C372.676941,358.706329 373.892731,359.903961 373.786285,363.800110 
	C373.604492,370.454254 373.924225,377.121307 373.983093,383.783386 
	C373.996490,385.298187 373.804901,386.814789 373.707672,388.330536 
	C373.186859,388.363800 372.666046,388.397034 372.145233,388.430267 
	C371.811310,386.969727 371.381714,385.523621 371.158539,384.046356 
	C369.310303,371.812225 361.873199,364.247345 349.789398,363.511597 
	C342.010132,363.037903 334.139557,363.434448 326.348083,363.982971 
	C319.723694,364.449371 316.961334,367.182556 316.848602,373.830872 
	C316.566559,390.461578 316.755585,407.100281 316.755585,424.962585 
	C327.878998,424.416748 338.948212,424.274261 349.921997,423.177185 
	C356.014374,422.568146 359.361603,418.121857 360.082520,411.899017 
	C360.209290,410.804535 360.955933,409.781921 361.416321,408.726105 
	C361.822754,408.849854 362.229187,408.973602 362.635620,409.097382 
	C362.635620,421.785889 362.635620,434.474426 362.635620,447.162933 
	C362.303864,447.303497 361.972137,447.444061 361.640381,447.584625 
	C360.400543,443.863159 360.032196,439.408722 357.685333,436.618347 
	C355.139618,433.591614 350.751465,432.114471 346.744446,429.898926 
z"/>
<path fill="#F8F8F8" opacity="1.000000" stroke="none" 
	d="
M57.810089,426.146637 
	C51.657898,421.338257 44.846291,417.520966 40.172302,411.919922 
	C25.013617,393.754364 31.470835,369.095276 53.314800,360.159332 
	C68.488464,353.952026 83.632286,355.524750 98.432182,361.726074 
	C99.924835,362.351532 101.608406,364.474884 101.752411,366.036835 
	C102.485916,373.993469 102.751625,381.993713 103.134979,389.980865 
	C103.153282,390.362030 102.733810,390.764221 101.846664,392.378784 
	C101.013184,389.910217 100.452248,388.410492 99.998383,386.879059 
	C96.413841,374.784149 91.081436,364.139923 77.533539,360.643311 
	C65.644188,357.574829 54.806385,360.925293 49.320972,369.151794 
	C43.219585,378.302094 43.431896,391.968201 50.740822,400.953308 
	C54.552265,405.638855 59.419651,409.672180 64.402214,413.152405 
	C72.977432,419.141998 82.106758,424.330933 90.838844,430.104980 
	C105.248001,439.632904 111.243088,452.617920 108.333153,467.334106 
	C105.287468,482.736847 94.212921,493.557678 77.573372,496.766663 
	C62.968132,499.583313 48.714283,498.213837 35.314102,491.399811 
	C33.539776,490.497528 31.523626,488.283142 31.280666,486.455627 
	C29.986990,476.724915 29.208529,466.925140 28.311817,457.143738 
	C28.262287,456.603485 28.750904,456.013916 29.514513,454.196960 
	C30.511366,456.755646 31.241228,458.220673 31.659914,459.769867 
	C34.404915,469.926453 39.051113,479.003082 46.766285,486.299683 
	C56.172401,495.195526 72.721802,497.178009 83.999519,490.851288 
	C91.214378,486.803802 94.300102,480.292358 94.901184,472.363098 
	C95.856293,459.763916 91.268356,449.386871 81.330818,441.828644 
	C73.940536,436.207794 65.887367,431.458496 57.810089,426.146637 
z"/>
<path fill="#040404" opacity="1.000000" stroke="none" 
	d="
M207.886658,430.924957 
	C194.596115,430.924957 181.787445,430.924957 168.084549,430.924957 
	C175.657761,412.951630 183.027939,395.460114 190.810226,376.990570 
	C199.454361,395.223511 207.779449,412.783478 216.380219,430.924957 
	C213.244308,430.924957 210.806412,430.924957 207.886658,430.924957 
z"/>
</svg>