<?xml version="1.0" encoding="UTF-8"?>
<svg version="1.1" xmlns="http://www.w3.org/2000/svg" width="329" height="688">
<path d="M0 0 C108.57 0 217.14 0 329 0 C329 227.04 329 454.08 329 688 C220.43 688 111.86 688 0 688 C0 460.96 0 233.92 0 0 Z " fill="#F4F4F4" transform="translate(0,0)"/>
<path d="M0 0 C4.95 0 9.9 0 15 0 C20.60672298 11.08274184 26.02272831 22.24702614 31.33666992 33.47290039 C32.56326347 36.06411285 33.79215961 38.65422296 35.02148438 41.24414062 C36.6081856 44.58819843 38.19082855 47.93412773 39.77001953 51.28173828 C41.21883167 54.35295622 42.67852551 57.41857491 44.14794922 60.47998047 C44.79534989 61.83946943 45.44265397 63.19900439 46.08984375 64.55859375 C46.93663696 66.32481079 46.93663696 66.32481079 47.80053711 68.12670898 C49 71 49 71 49 74 C44.38 74 39.76 74 35 74 C33.82845707 71.71070947 32.66261926 69.41881638 31.5 67.125 C31.16613281 66.47402344 30.83226562 65.82304687 30.48828125 65.15234375 C28 60.2265625 28 60.2265625 28 58 C14.47 58 0.94 58 -13 58 C-13.66 59.98 -14.32 61.96 -15 64 C-16.57371883 67.3858799 -18.29372229 70.67724868 -20 74 C-24.62 74 -29.24 74 -34 74 C-31.75027628 67.25082885 -31.75027628 67.25082885 -30.23510742 64.09130859 C-29.89639618 63.38038055 -29.55768494 62.66945251 -29.20870972 61.9369812 C-28.8446402 61.18176178 -28.48057068 60.42654236 -28.10546875 59.6484375 C-27.72125763 58.84383087 -27.33704651 58.03922424 -26.94119263 57.2102356 C-26.11856822 55.48816719 -25.29442729 53.76682253 -24.46890259 52.04614258 C-22.31318168 47.55244329 -20.16863255 43.05341869 -18.0234375 38.5546875 C-17.59563492 37.65816467 -17.16783234 36.76164185 -16.72706604 35.83795166 C-12.87104451 27.74890565 -9.07549671 19.63267757 -5.3125 11.5 C-4.76682373 10.32099121 -4.22114746 9.14198242 -3.65893555 7.92724609 C-2.43777944 5.28552864 -1.21861715 2.64288962 0 0 Z " fill="#040404" transform="translate(144,285)"/>
<path d="M0 0 C0.96832764 0.00829834 1.93665527 0.01659668 2.93432617 0.02514648 C14.91628129 0.30767811 23.23687514 3.39097866 32.1875 11.4375 C30.36245091 15.36050272 28.00479174 18.17537272 25.1875 21.4375 C22.21635512 20.38886063 19.91452114 19.24760166 17.3125 17.4375 C11.59038256 13.77534484 5.80323955 13.09322912 -0.875 13.125 C-1.8969043 13.10083008 -1.8969043 13.10083008 -2.93945312 13.07617188 C-7.64583925 13.07165085 -10.80973185 13.99301603 -14.8125 16.4375 C-15.4725 17.0975 -16.1325 17.7575 -16.8125 18.4375 C-16.72246107 23.24067482 -16.72246107 23.24067482 -14.15234375 27.06640625 C-11.28248913 28.74807398 -8.7656739 29.30470506 -5.5 29.9375 C-4.26121094 30.18628906 -3.02242187 30.43507813 -1.74609375 30.69140625 C0.8636392 31.19200107 3.47591972 31.67351683 6.08984375 32.15234375 C25.99547046 35.89096399 25.99547046 35.89096399 32.1875 43.4375 C35.46423497 48.35260246 34.83330212 53.70005802 34.1875 59.4375 C32.00332156 65.73606109 26.9644202 70.31906696 21.1875 73.4375 C14.13018418 76.58148635 7.45995268 76.9257983 -0.1875 76.875 C-1.24710938 76.89498047 -2.30671875 76.91496094 -3.3984375 76.93554688 C-13.31682912 76.92946943 -21.56904873 74.34298265 -29.875 68.875 C-30.77347656 68.29621094 -31.67195313 67.71742188 -32.59765625 67.12109375 C-34.8125 65.4375 -34.8125 65.4375 -36.8125 62.4375 C-34.1725 59.1375 -31.5325 55.8375 -28.8125 52.4375 C-27.9875 52.994375 -27.1625 53.55125 -26.3125 54.125 C-25.14608134 54.89620857 -23.97939044 55.66700546 -22.8125 56.4375 C-22.17441406 56.86933594 -21.53632812 57.30117188 -20.87890625 57.74609375 C-20.21761719 58.18050781 -19.55632813 58.61492187 -18.875 59.0625 C-18.26785156 59.46726562 -17.66070312 59.87203125 -17.03515625 60.2890625 C-11.09774279 63.35690004 -5.27909018 63.77722723 1.25 63.75 C2.02666016 63.76611328 2.80332031 63.78222656 3.60351562 63.79882812 C9.39033879 63.80372806 13.32060252 62.53989149 18.0625 59.0625 C19.68125847 56.72429332 19.6041963 55.21547533 19.1875 52.4375 C16.68049867 48.83368559 12.85574717 48.30404624 8.8125 47.375 C7.74491455 47.11686523 7.74491455 47.11686523 6.65576172 46.85351562 C2.22876253 45.81372926 -2.1776971 45.04417587 -6.6875 44.4375 C-15.75024272 43.13641317 -23.55696531 40.35334113 -29.8125 33.4375 C-33.32618163 28.45033897 -33.76497624 23.3538428 -32.8125 17.4375 C-30.42202391 11.17356729 -25.64989087 6.58857564 -19.8125 3.4375 C-13.21985921 0.58582331 -7.13485285 -0.07880044 0 0 Z " fill="#040404" transform="translate(55.8125,283.5625)"/>
<path d="M0 0 C19.47 0 38.94 0 59 0 C59 4.29 59 8.58 59 13 C44.15 13 29.3 13 14 13 C14 19.27 14 25.54 14 32 C27.53 32 41.06 32 55 32 C55 36.29 55 40.58 55 45 C41.14 45 27.28 45 13 45 C13 54.57 13 64.14 13 74 C8.71 74 4.42 74 0 74 C0 49.58 0 25.16 0 0 Z " fill="#060606" transform="translate(219,285)"/>
<path d="M0 0 C6.93 0 13.86 0 21 0 C21 24.75 21 49.5 21 75 C14.07 75 7.14 75 0 75 C0 50.25 0 25.5 0 0 Z " fill="#070707" transform="translate(308,285)"/>
<path d="M0 0 C3.89784981 4.84282641 6.12818458 10.43861077 8.6875 16.0625 C9.19861328 17.16400391 9.70972656 18.26550781 10.23632812 19.40039062 C10.71908203 20.45548828 11.20183594 21.51058594 11.69921875 22.59765625 C12.14096436 23.56195557 12.58270996 24.52625488 13.0378418 25.51977539 C14 28 14 28 14 31 C4.76 31 -4.48 31 -14 31 C-4.07972665 8.93849658 -4.07972665 8.93849658 0 0 Z " fill="#EFEFEF" transform="translate(151,300)"/>
<path d="M0 0 C2.31 0 4.62 0 7 0 C7 6.6 7 13.2 7 20 C4.69 20 2.38 20 0 20 C0 13.4 0 6.8 0 0 Z " fill="#EDEDED" transform="translate(322,327)"/>
<path d="M0 0 C2.31 0 4.62 0 7 0 C7 5.94 7 11.88 7 18 C4.69 18 2.38 18 0 18 C0 12.06 0 6.12 0 0 Z " fill="#EEEEEE" transform="translate(322,297)"/>
</svg>
