
<!-- Generator: visioncortex VTracer 0.6.4 -->
<svg version="1.1" xmlns="http://www.w3.org/2000/svg" viewBox="0 0 971 101" preserveAspectRatio="xMidYMid meet">
<path d="M0 0 C320.43 0 640.86 0 971 0 C971 33.33 971 66.66 971 101 C650.57 101 330.14 101 0 101 C0 67.67 0 34.34 0 0 Z " fill="#020202" transform="translate(0,0)"/>
<path d="M0 0 C11.009 7.44 17.489 18.278 20.568 31.079 C23.161 45.078 21.535 60.768 13.73 72.805 C7.647 80.721 -0.137 85.662 -10.02 87.305 C-21.014 88.266 -29.761 86.888 -38.777 80.285 C-50.137 70.604 -56.565 58.157 -58.02 43.305 C-58.812 28.811 -58.124 15.714 -48.199 4.191 C-34.997 -8.289 -15.367 -8.628 0 0 Z " fill="#010101" transform="translate(934.01953125,8.6953125)"/>
<path d="M0 0 C0.878 -0.005 1.755 -0.01 2.659 -0.015 C3.571 0.012 4.483 0.039 5.422 0.066 C6.362 0.084 7.302 0.101 8.271 0.119 C14.891 0.345 20.491 0.996 26.172 4.629 C27.33 5.358 27.33 5.358 28.512 6.102 C38.484 13.12 44.614 23.799 47.172 35.629 C48.258 50.103 48.862 66.112 38.906 77.793 C38.334 78.399 37.762 79.005 37.172 79.629 C36.558 80.317 35.945 81.006 35.312 81.715 C27.704 89.409 17.668 92.743 7.016 93.061 C-4.339 93.094 -4.339 93.094 -8.939 88.538 C-11.294 84.911 -11.406 81.984 -11.377 77.797 C-11.388 77.024 -11.398 76.251 -11.408 75.454 C-11.436 72.908 -11.434 70.363 -11.43 67.816 C-11.437 66.042 -11.446 64.267 -11.456 62.493 C-11.471 58.777 -11.47 55.062 -11.459 51.347 C-11.448 46.588 -11.482 41.831 -11.528 37.073 C-11.558 33.409 -11.559 29.747 -11.553 26.083 C-11.554 24.329 -11.565 22.575 -11.585 20.82 C-11.609 18.366 -11.596 15.915 -11.573 13.461 C-11.588 12.739 -11.603 12.016 -11.619 11.272 C-11.56 8.461 -11.356 6.267 -9.529 4.057 C-6.439 1.386 -4.091 -0.004 0 0 Z " fill="#010101" transform="translate(789.828125,3.37109375)"/>
<path d="M0 0 C43.23 0 86.46 0 131 0 C131.33 0.66 131.66 1.32 132 2 C122.76 2.33 113.52 2.66 104 3 C106.31 3.99 108.62 4.98 111 6 C113.235 9.352 113.144 10.573 112.541 14.425 C111.324 20.217 109.616 25.883 107.965 31.562 C107.562 32.963 107.16 34.364 106.758 35.766 C105.707 39.43 104.648 43.092 103.587 46.754 C102.504 50.5 101.427 54.248 100.35 57.996 C98.24 65.333 96.122 72.667 94 80 C90.552 78.276 89.986 74.124 88.727 70.656 C88.406 69.792 88.086 68.927 87.756 68.036 C86.705 65.193 85.665 62.347 84.625 59.5 C83.907 57.549 83.188 55.598 82.469 53.647 C80.651 48.712 78.843 43.773 77.037 38.834 C75.749 35.313 74.454 31.794 73.158 28.276 C72.031 25.212 70.907 22.147 69.785 19.081 C69.263 17.655 68.739 16.228 68.216 14.802 C67.495 12.837 66.778 10.87 66.062 8.902 C65.662 7.804 65.261 6.706 64.848 5.574 C64 3 64 3 64 1 C62.68 1 61.36 1 60 1 C59.905 1.553 59.811 2.106 59.713 2.676 C58.275 10.471 56.03 17.974 53.719 25.547 C53.3 26.931 52.882 28.314 52.464 29.698 C51.371 33.314 50.272 36.928 49.172 40.541 C48.276 43.488 47.384 46.435 46.493 49.383 C45.423 52.917 44.353 56.451 43.281 59.984 C43.079 60.651 42.877 61.317 42.669 62.004 C42.093 63.901 41.516 65.798 40.939 67.694 C40.612 68.77 40.285 69.846 39.948 70.954 C39.005 73.984 38.014 76.993 37 80 C34.692 77.692 34.228 76.133 33.23 73.047 C32.902 72.043 32.573 71.039 32.235 70.004 C31.889 68.93 31.544 67.856 31.188 66.75 C30.462 64.536 29.735 62.323 29.008 60.109 C28.659 59.044 28.31 57.979 27.95 56.881 C25.423 49.219 22.648 41.658 19.73 34.137 C19.323 33.076 18.916 32.016 18.496 30.924 C17.684 28.816 16.864 26.712 16.033 24.611 C13.749 18.664 12.205 13.393 12 7 C14.197 4.489 15.834 4.055 19 3 C12.73 2.67 6.46 2.34 0 2 C0 1.34 0 0.68 0 0 Z " fill="#020202" transform="translate(13,0)"/>
<path d="M0 0 C29.37 0 58.74 0 89 0 C89 0.33 89 0.66 89 1 C83.72 1 78.44 1 73 1 C73 1.66 73 2.32 73 3 C73.888 3.056 73.888 3.056 74.793 3.113 C79.997 3.546 84.132 4.132 88 8 C88.271 12.959 87.662 17.016 86.256 21.761 C86.071 22.396 85.885 23.031 85.694 23.686 C85.086 25.761 84.465 27.831 83.844 29.902 C83.417 31.349 82.991 32.797 82.566 34.244 C81.45 38.036 80.322 41.824 79.192 45.612 C78.039 49.485 76.897 53.361 75.754 57.236 C73.513 64.827 71.26 72.415 69 80 C66.45 76.736 65.019 73.806 63.617 69.891 C63.177 68.673 62.736 67.455 62.282 66.2 C61.813 64.884 61.344 63.567 60.875 62.25 C60.139 60.207 59.4 58.165 58.661 56.123 C58.162 54.744 57.664 53.364 57.166 51.984 C54.915 45.74 52.593 39.523 50.25 33.312 C49.527 31.389 48.804 29.466 48.082 27.543 C47.737 26.626 47.393 25.708 47.038 24.763 C45.331 20.219 43.629 15.674 41.938 11.125 C41.638 10.327 41.339 9.53 41.03 8.708 C39 3.23 39 3.23 39 1 C38.01 1.33 37.02 1.66 36 2 C34.96 4.091 34.96 4.091 34.23 6.754 C33.906 7.814 33.581 8.874 33.246 9.966 C32.897 11.153 32.548 12.34 32.188 13.562 C31.813 14.797 31.438 16.032 31.052 17.304 C28.412 26.038 25.896 34.808 23.367 43.574 C23.054 44.658 22.74 45.743 22.417 46.86 C20.833 52.34 19.257 57.823 17.698 63.311 C17.113 65.348 16.527 67.385 15.941 69.422 C15.674 70.375 15.407 71.328 15.131 72.309 C14.88 73.178 14.628 74.046 14.369 74.94 C14.152 75.703 13.935 76.466 13.711 77.253 C13 79 13 79 11 80 C10.749 79.268 10.499 78.536 10.241 77.782 C4.675 61.543 -0.978 45.339 -6.773 29.18 C-7.326 27.628 -7.326 27.628 -7.89 26.046 C-8.636 23.997 -9.411 21.959 -10.212 19.931 C-10.588 18.966 -10.964 18.002 -11.352 17.008 C-11.863 15.738 -11.863 15.738 -12.385 14.442 C-13.106 11.58 -12.82 9.813 -12 7 C-10.938 5.25 -10.938 5.25 -9 4 C-6.32 3.454 -3.737 3.224 -1 3 C-0.67 2.01 -0.34 1.02 0 0 Z " fill="#010101" transform="translate(526,0)"/>
<path d="M0 0 C15.18 0 30.36 0 46 0 C46 0.66 46 1.32 46 2 C41.545 2.495 41.545 2.495 37 3 C37.949 3.413 38.898 3.825 39.875 4.25 C43.255 6.143 43.805 6.478 45 10 C45.169 12.79 45.233 15.479 45.195 18.266 C45.193 18.969 45.191 19.673 45.189 20.398 C45.179 23.015 45.151 25.633 45.125 28.25 C45.084 34.108 45.042 39.965 45 46 C25.2 46 5.4 46 -15 46 C-15.062 40.163 -15.124 34.326 -15.188 28.312 C-15.215 26.479 -15.242 24.645 -15.27 22.755 C-15.279 21.291 -15.287 19.827 -15.293 18.363 C-15.308 17.612 -15.324 16.86 -15.339 16.085 C-15.342 11.519 -14.772 8.661 -12 5 C-10.337 3.337 -8.217 3.64 -5.938 3.438 C-4.559 3.312 -4.559 3.312 -3.152 3.184 C-2.442 3.123 -1.732 3.062 -1 3 C-0.67 2.01 -0.34 1.02 0 0 Z " fill="#050505" transform="translate(187,0)"/>
<path d="M0 0 C1.32 0 2.64 0 4 0 C5.457 3.837 6.914 7.674 8.37 11.511 C8.863 12.808 9.355 14.106 9.848 15.403 C15.795 31.064 21.664 46.75 27.375 62.5 C28.378 65.265 29.382 68.03 30.385 70.795 C30.884 72.169 31.382 73.542 31.881 74.916 C32.25 75.934 32.619 76.951 33 78 C35.511 69.651 38.007 61.297 40.484 52.938 C41.634 49.056 42.79 45.176 43.958 41.299 C45.085 37.555 46.199 33.807 47.303 30.056 C47.726 28.628 48.154 27.202 48.587 25.778 C49.194 23.776 49.784 21.77 50.369 19.761 C50.709 18.622 51.049 17.483 51.399 16.309 C52.087 12.521 51.936 9.731 51 6 C46.829 3.546 42.777 2.583 38 2 C38 1.67 38 1.34 38 1 C49.22 1 60.44 1 72 1 C68.976 3.016 66.478 3.846 63.035 4.828 C58.365 7.517 56.85 12.046 55.438 16.977 C54.948 18.857 54.469 20.74 54 22.625 C53.484 24.607 52.966 26.589 52.445 28.57 C52.075 29.986 52.075 29.986 51.696 31.431 C50.631 35.361 49.331 39.193 47.99 43.036 C46.964 46.107 46.055 49.193 45.172 52.309 C44.823 53.539 44.474 54.769 44.115 56.037 C42.974 60.086 41.842 64.139 40.711 68.191 C40.519 68.878 40.328 69.565 40.13 70.272 C39.841 71.306 39.841 71.306 39.547 72.361 C39.354 73.052 39.161 73.742 38.963 74.453 C38.567 75.875 38.171 77.298 37.776 78.72 C37.195 80.815 36.609 82.91 36.023 85.004 C35.682 86.229 35.341 87.455 34.99 88.717 C34.132 91.562 33.158 94.266 32 97 C30.142 96.821 30.142 96.821 28 96 C26.769 93.806 26.769 93.806 25.729 90.864 C25.133 89.214 25.133 89.214 24.525 87.531 C24.108 86.327 23.691 85.123 23.262 83.883 C22.596 82.021 22.596 82.021 21.917 80.123 C20.73 76.804 19.562 73.479 18.399 70.152 C17.238 66.844 16.061 63.541 14.885 60.238 C13.517 56.393 12.15 52.548 10.79 48.7 C8.193 41.347 5.577 34.002 2.895 26.68 C2.468 25.507 2.468 25.507 2.033 24.31 C0.964 20.894 0.964 20.894 -1 18 C-1.181 18.622 -1.361 19.245 -1.547 19.886 C-4.865 31.308 -8.201 42.724 -11.652 54.107 C-13.166 59.132 -14.622 64.171 -16.047 69.223 C-16.401 70.478 -16.756 71.733 -17.121 73.026 C-17.817 75.498 -18.51 77.972 -19.197 80.446 C-20.806 86.16 -22.466 91.627 -25 97 C-25.99 97 -26.98 97 -28 97 C-32.09 86.077 -36.039 75.11 -39.883 64.098 C-40.309 62.878 -40.735 61.658 -41.173 60.401 C-42.939 55.34 -44.703 50.278 -46.462 45.215 C-47.765 41.466 -49.074 37.719 -50.383 33.973 C-50.967 32.285 -50.967 32.285 -51.564 30.563 C-55.89 15.733 -55.89 15.733 -65 4 C-68.167 2.664 -68.167 2.664 -71 2 C-71 1.67 -71 1.34 -71 1 C-59.45 1 -47.9 1 -36 1 C-36 1.33 -36 1.66 -36 2 C-37.065 2.307 -37.065 2.307 -38.152 2.621 C-39.531 3.025 -39.531 3.025 -40.938 3.438 C-42.312 3.838 -42.312 3.838 -43.715 4.246 C-45.94 4.79 -45.94 4.79 -47 6 C-46.655 13.401 -44.593 19.467 -41.875 26.312 C-41.052 28.446 -40.23 30.58 -39.41 32.715 C-39.002 33.773 -38.593 34.831 -38.172 35.921 C-36.475 40.379 -34.879 44.869 -33.312 49.375 C-33.034 50.174 -32.756 50.974 -32.47 51.797 C-29.573 60.173 -26.775 68.583 -24 77 C-22.552 74.262 -21.489 71.613 -20.615 68.644 C-20.36 67.786 -20.106 66.929 -19.843 66.045 C-19.573 65.12 -19.302 64.195 -19.023 63.242 C-18.593 61.789 -18.593 61.789 -18.155 60.307 C-17.542 58.235 -16.931 56.163 -16.321 54.09 C-14.747 48.741 -13.162 43.396 -11.578 38.051 C-11.113 36.48 -11.113 36.48 -10.639 34.877 C-7.185 23.223 -3.622 11.603 0 0 Z " fill="#F5F5F5" transform="translate(73,1)"/>
<path d="M0 0 C0.99 0 1.98 0 3 0 C9.691 16.514 15.823 33.223 21.947 49.954 C25.254 58.986 28.594 68.005 32 77 C34.247 71.23 36.107 65.449 37.777 59.488 C38.03 58.598 38.283 57.708 38.543 56.791 C39.344 53.966 40.141 51.139 40.938 48.312 C41.986 44.6 43.037 40.888 44.09 37.176 C44.341 36.286 44.593 35.397 44.852 34.48 C46.565 28.453 48.369 22.464 50.283 16.497 C51.287 13.001 51.702 10.588 51 7 C47.234 3.477 41.935 2.914 37 2 C37 1.67 37 1.34 37 1 C48.22 1 59.44 1 71 1 C71 1.33 71 1.66 71 2 C70.112 2.22 70.112 2.22 69.207 2.445 C68.417 2.67 67.627 2.894 66.812 3.125 C66.035 3.334 65.258 3.543 64.457 3.758 C59.326 6.352 57.034 10.391 55.191 15.625 C54.633 17.412 54.091 19.204 53.562 21 C53.267 21.963 52.972 22.927 52.668 23.919 C50.356 31.555 48.254 39.248 46.199 46.957 C44.411 53.631 42.392 60.203 40.263 66.775 C37.171 76.42 34.595 86.212 32 96 C30.68 96.33 29.36 96.66 28 97 C21.815 81.425 16.071 65.689 10.321 49.95 C9.041 46.449 7.76 42.949 6.479 39.449 C3.984 32.634 1.491 25.817 -1 19 C-3.179 22.269 -4.129 25.391 -5.183 29.118 C-5.392 29.838 -5.6 30.559 -5.815 31.301 C-6.266 32.864 -6.716 34.427 -7.164 35.991 C-7.872 38.464 -8.59 40.933 -9.31 43.403 C-11.356 50.422 -13.395 57.444 -15.409 64.473 C-16.641 68.773 -17.89 73.068 -19.15 77.36 C-19.628 78.999 -20.099 80.639 -20.564 82.281 C-21.213 84.573 -21.883 86.857 -22.558 89.141 C-22.746 89.825 -22.934 90.508 -23.128 91.213 C-23.697 93.091 -23.697 93.091 -25 96 C-27.153 96.929 -27.153 96.929 -29 97 C-30.508 92.782 -32.015 88.564 -33.522 84.346 C-34.853 80.622 -36.185 76.898 -37.519 73.175 C-40.815 63.964 -44.097 54.748 -47.32 45.511 C-48.757 41.397 -50.2 37.285 -51.643 33.173 C-52.337 31.189 -53.028 29.203 -53.715 27.216 C-54.68 24.426 -55.657 21.64 -56.637 18.855 C-57.059 17.618 -57.059 17.618 -57.491 16.355 C-59.294 11.274 -61.14 6.529 -66.141 3.855 C-66.837 3.635 -67.533 3.415 -68.25 3.188 C-70.106 2.6 -70.106 2.6 -72 2 C-72 1.67 -72 1.34 -72 1 C-60.45 1 -48.9 1 -37 1 C-37 1.33 -37 1.66 -37 2 C-37.626 2.193 -38.253 2.387 -38.898 2.586 C-39.716 2.846 -40.533 3.107 -41.375 3.375 C-42.187 3.63 -42.999 3.885 -43.836 4.148 C-46.165 4.899 -46.165 4.899 -48 7 C-47.611 11.268 -46.398 15.123 -44.996 19.156 C-44.589 20.333 -44.182 21.51 -43.762 22.722 C-43.321 23.982 -42.879 25.241 -42.438 26.5 C-41.985 27.801 -41.532 29.103 -41.079 30.405 C-37.766 39.913 -34.361 49.389 -30.887 58.84 C-28.546 65.21 -26.276 71.606 -24 78 C-23.689 76.936 -23.378 75.872 -23.057 74.776 C-22.614 73.259 -22.17 71.743 -21.727 70.227 C-21.487 69.408 -21.248 68.589 -21.001 67.745 C-19.665 63.179 -18.329 58.614 -16.991 54.048 C-16.436 52.157 -15.882 50.266 -15.328 48.375 C-14.91 46.949 -14.91 46.949 -14.484 45.495 C-12.9 40.085 -11.323 34.673 -9.755 29.258 C-8.846 26.119 -7.933 22.98 -7.019 19.841 C-6.591 18.368 -6.165 16.894 -5.741 15.42 C-5.152 13.375 -4.557 11.332 -3.961 9.289 C-3.463 7.567 -3.463 7.567 -2.955 5.811 C-2 3 -2 3 0 0 Z " fill="#F5F5F5" transform="translate(562,1)"/>
<path d="M0 0 C1.831 0.179 1.831 0.179 4 1 C5.409 3.192 5.409 3.192 6.707 6.133 C7.203 7.233 7.7 8.334 8.211 9.468 C8.74 10.675 9.268 11.882 9.812 13.125 C10.966 15.697 12.13 18.264 13.293 20.832 C13.744 21.834 13.744 21.834 14.204 22.856 C17.537 30.243 21.074 37.528 24.625 44.812 C25.886 47.403 27.146 49.995 28.406 52.586 C28.711 53.212 29.016 53.838 29.329 54.484 C31.317 58.574 33.276 62.677 35.219 66.789 C35.713 67.833 36.207 68.878 36.716 69.954 C37.619 71.866 38.518 73.78 39.413 75.697 C45.403 88.618 45.403 88.618 57 96 C57 96.33 57 96.66 57 97 C45.45 97 33.9 97 22 97 C22 96.67 22 96.34 22 96 C22.638 95.867 23.276 95.734 23.934 95.598 C25.173 95.333 25.173 95.333 26.438 95.062 C27.673 94.801 27.673 94.801 28.934 94.535 C30.977 94.192 30.977 94.192 32 93 C32.448 87.511 31.332 83.602 28.938 78.754 C28.662 78.171 28.387 77.589 28.104 76.988 C27.084 74.839 26.041 72.701 25 70.562 C22.69 65.757 20.38 60.951 18 56 C-0.315 55.505 -0.315 55.505 -19 55 C-19.99 57.97 -20.98 60.94 -22 64 C-23.824 68.246 -23.824 68.246 -24.755 70.33 C-29.398 80.303 -29.398 80.303 -29 91 C-25.478 94.636 -19.859 95.1 -15 96 C-15 96.33 -15 96.66 -15 97 C-26.88 97 -38.76 97 -51 97 C-47 95 -47 95 -44.125 93.938 C-35.93 88.857 -33.11 78.823 -29.715 70.254 C-28.289 66.667 -26.722 63.174 -25.062 59.688 C-22.084 53.357 -19.531 46.886 -16.968 40.379 C-14.633 34.485 -12.089 28.757 -9.375 23.027 C-7.421 18.725 -5.763 14.325 -4.102 9.902 C-2.831 6.553 -1.447 3.276 0 0 Z " fill="#F4F4F4" transform="translate(311,0)"/>
<path d="M0 0 C0.74 0.523 1.48 1.047 2.242 1.586 C3.197 2.247 3.197 2.247 4.172 2.922 C13.342 9.973 19.461 22.27 21.242 33.586 C22.452 49.211 18.525 62.009 8.762 74.477 C3.578 80.16 -3.066 83.927 -9.758 87.586 C-10.587 88.046 -11.416 88.506 -12.27 88.98 C-23.117 93.924 -40.205 93.544 -51.387 89.68 C-64.802 83.491 -73.492 74.354 -78.758 60.586 C-79.117 59.725 -79.477 58.864 -79.848 57.977 C-84.224 46.482 -82.605 32.321 -77.762 21.324 C-71.11 8.136 -60.05 -0.66 -46.195 -5.352 C-30.902 -10.049 -13.511 -8.849 0 0 Z M-60.512 6.438 C-70.33 18.79 -71.061 33.167 -69.332 48.316 C-66.957 61.214 -61.466 73.559 -50.758 81.586 C-40.226 87.776 -31.174 90.121 -18.93 88.125 C-8.835 85.427 -1.132 79.534 4.242 70.586 C10.641 56.407 11.855 39.153 6.516 24.422 C4.47 19.867 2.063 15.701 -0.758 11.586 C-1.335 10.699 -1.913 9.812 -2.508 8.898 C-11.047 0.122 -21.704 -4.474 -33.945 -4.852 C-44.187 -4.434 -53.357 -1.116 -60.512 6.438 Z " fill="#F5F5F5" transform="translate(945.7578125,7.4140625)"/>
<path d="M0 0 C8.59 8.382 14.452 18.444 14.806 30.592 C14.85 45.593 11.289 58.459 0.699 69.594 C-9.788 79.013 -21.961 83.83 -35.938 83.75 C-36.774 83.748 -37.611 83.746 -38.474 83.744 C-51.84 83.659 -65.206 83.11 -78.562 82.625 C-78.562 82.295 -78.562 81.965 -78.562 81.625 C-77.64 81.461 -77.64 81.461 -76.699 81.293 C-75.891 81.134 -75.083 80.976 -74.25 80.812 C-73.449 80.662 -72.649 80.511 -71.824 80.355 C-69.095 79.474 -68.228 78.972 -66.562 76.625 C-66.266 73.911 -66.153 71.427 -66.174 68.713 C-66.169 67.908 -66.164 67.103 -66.158 66.273 C-66.145 63.609 -66.154 60.945 -66.164 58.281 C-66.162 56.432 -66.159 54.582 -66.155 52.733 C-66.151 48.856 -66.157 44.979 -66.171 41.102 C-66.188 36.128 -66.179 31.155 -66.161 26.182 C-66.15 22.362 -66.153 18.543 -66.161 14.724 C-66.163 12.89 -66.161 11.056 -66.154 9.222 C-66.146 6.66 -66.158 4.099 -66.174 1.537 C-66.168 0.776 -66.162 0.016 -66.156 -0.768 C-66.187 -4.798 -66.187 -4.798 -67.945 -8.324 C-70.012 -9.667 -71.833 -10.107 -74.25 -10.562 C-75.462 -10.8 -75.462 -10.8 -76.699 -11.043 C-77.314 -11.153 -77.929 -11.262 -78.562 -11.375 C-78.562 -11.705 -78.562 -12.035 -78.562 -12.375 C-18.249 -14.918 -18.249 -14.918 0 0 Z M-55.562 -5.375 C-56.168 -2.49 -56.378 -0.436 -56.323 2.441 C-56.332 3.213 -56.341 3.984 -56.35 4.779 C-56.371 7.321 -56.349 9.86 -56.324 12.402 C-56.326 14.174 -56.329 15.947 -56.334 17.719 C-56.339 21.43 -56.322 25.141 -56.29 28.852 C-56.25 33.602 -56.259 38.35 -56.284 43.099 C-56.298 46.758 -56.288 50.417 -56.271 54.076 C-56.265 55.826 -56.266 57.577 -56.275 59.328 C-56.283 61.779 -56.258 64.228 -56.225 66.679 C-56.234 67.398 -56.242 68.117 -56.251 68.857 C-56.121 74.488 -54.41 76.807 -50.562 80.625 C-48.698 81.598 -48.698 81.598 -46.562 81.625 C-45.525 81.715 -44.487 81.805 -43.418 81.898 C-31.318 82.233 -20.429 80.476 -10.938 72.25 C-9.444 70.742 -7.981 69.203 -6.562 67.625 C-6.042 67.071 -5.521 66.516 -4.984 65.945 C4.285 54.722 3.644 38.283 2.438 24.625 C0.036 11.388 -7.922 2.169 -18.207 -5.945 C-25.101 -10.13 -31.283 -10.897 -39.188 -10.875 C-40.103 -10.903 -41.018 -10.932 -41.961 -10.961 C-42.853 -10.964 -43.745 -10.966 -44.664 -10.969 C-45.462 -10.976 -46.259 -10.983 -47.081 -10.99 C-50.689 -10.096 -53.226 -8.202 -55.562 -5.375 Z " fill="#FCFCFC" transform="translate(834.5625,14.375)"/>
<path d="M0 0 C12.21 0 24.42 0 37 0 C37 0.33 37 0.66 37 1 C36.313 1.086 35.626 1.173 34.918 1.262 C33.566 1.472 33.566 1.472 32.188 1.688 C31.294 1.815 30.401 1.943 29.48 2.074 C26.053 3.353 25.534 4.697 24 8 C23.681 10.854 23.512 13.508 23.488 16.363 C23.472 17.066 23.455 17.769 23.438 18.493 C23.38 21.099 23.348 23.706 23.312 26.312 C23.209 32.149 23.106 37.986 23 44 C42.8 44 62.6 44 83 44 C82.876 38.142 82.752 32.285 82.625 26.25 C82.591 24.407 82.557 22.564 82.522 20.665 C82.487 19.199 82.451 17.732 82.414 16.266 C82.403 15.509 82.391 14.752 82.38 13.972 C82.253 8.67 82.253 8.67 80 4 C76.475 2.14 72.924 1.548 69 1 C69 0.67 69 0.34 69 0 C81.21 0 93.42 0 106 0 C106 0.33 106 0.66 106 1 C104.969 1.147 104.969 1.147 103.918 1.297 C103.017 1.446 102.116 1.596 101.188 1.75 C100.294 1.889 99.401 2.028 98.48 2.172 C95.305 3.232 94.639 4.088 93 7 C92.7 9.681 92.569 12.13 92.58 14.81 C92.572 15.593 92.563 16.375 92.554 17.182 C92.531 19.766 92.53 22.349 92.531 24.934 C92.524 26.732 92.516 28.53 92.508 30.329 C92.495 34.097 92.493 37.865 92.499 41.634 C92.505 46.461 92.474 51.287 92.434 56.113 C92.408 59.827 92.405 63.541 92.409 67.255 C92.407 69.034 92.397 70.813 92.38 72.593 C92.357 75.083 92.367 77.57 92.385 80.06 C92.372 80.793 92.358 81.527 92.345 82.282 C92.409 86.216 92.885 87.858 95.399 90.952 C97.975 92.98 99.11 93.65 102.312 93.812 C103.529 93.874 104.746 93.936 106 94 C106 94.33 106 94.66 106 95 C93.79 95 81.58 95 69 95 C69 94.67 69 94.34 69 94 C69.687 93.914 70.374 93.827 71.082 93.738 C71.983 93.598 72.884 93.457 73.812 93.312 C74.706 93.185 75.599 93.057 76.52 92.926 C79.12 92.192 79.12 92.192 80.623 90.02 C82.508 85.886 82.478 82.257 82.512 77.762 C82.528 76.98 82.545 76.199 82.562 75.394 C82.62 72.492 82.652 69.59 82.688 66.688 C82.791 60.191 82.894 53.694 83 47 C63.2 47 43.4 47 23 47 C23.155 56.745 23.155 56.745 23.312 66.688 C23.337 68.73 23.362 70.773 23.388 72.878 C23.42 74.506 23.454 76.134 23.488 77.762 C23.498 79.019 23.498 79.019 23.507 80.301 C23.622 84.978 23.913 88.233 27 92 C29.471 93.023 29.471 93.023 32.188 93.312 C33.089 93.453 33.99 93.594 34.918 93.738 C35.605 93.825 36.292 93.911 37 94 C37 94.33 37 94.66 37 95 C24.79 95 12.58 95 0 95 C0 94.67 0 94.34 0 94 C0.687 93.914 1.374 93.827 2.082 93.738 C2.983 93.598 3.884 93.457 4.812 93.312 C5.706 93.185 6.599 93.057 7.52 92.926 C10.934 91.651 11.467 90.283 13 87 C13.284 84.304 13.411 81.844 13.388 79.152 C13.393 78.378 13.399 77.603 13.404 76.805 C13.417 74.254 13.409 71.703 13.398 69.152 C13.4 67.375 13.403 65.599 13.407 63.822 C13.412 60.102 13.405 56.383 13.391 52.663 C13.374 47.896 13.384 43.129 13.402 38.362 C13.413 34.694 13.409 31.027 13.401 27.359 C13.399 25.602 13.402 23.844 13.409 22.086 C13.417 19.63 13.405 17.174 13.388 14.719 C13.394 13.993 13.4 13.267 13.407 12.519 C13.368 9.418 13.167 7.296 11.631 4.569 C9.462 2.483 7.761 2.21 4.812 1.75 C3.911 1.6 3.01 1.451 2.082 1.297 C1.395 1.199 0.708 1.101 0 1 C0 0.67 0 0.34 0 0 Z " fill="#FDFDFD" transform="translate(149,2)"/>
<path d="M0 0 C8.197 -0.023 16.394 -0.041 24.591 -0.052 C28.397 -0.057 32.202 -0.064 36.008 -0.075 C39.678 -0.086 43.348 -0.092 47.018 -0.095 C48.421 -0.097 49.824 -0.1 51.227 -0.106 C53.186 -0.113 55.144 -0.113 57.103 -0.114 C58.22 -0.116 59.337 -0.118 60.488 -0.12 C63 -0 63 -0 64 1 C64.087 2.489 64.107 3.981 64.098 5.473 C64.093 6.821 64.093 6.821 64.088 8.197 C64.075 9.616 64.075 9.616 64.062 11.062 C64.058 12.012 64.053 12.961 64.049 13.939 C64.037 16.293 64.021 18.646 64 21 C63.34 21 62.68 21 62 21 C61.794 19.824 61.587 18.649 61.375 17.438 C60.187 12.633 57.702 9.25 54 6 C49.262 4.421 44.462 4.774 39.5 4.75 C38.442 4.729 37.383 4.709 36.293 4.688 C35.278 4.682 34.264 4.677 33.219 4.672 C32.29 4.663 31.361 4.653 30.404 4.644 C28.016 4.853 28.016 4.853 26.206 5.996 C24.255 9.238 24.518 12.707 24.488 16.387 C24.47 17.204 24.452 18.021 24.434 18.863 C24.38 21.471 24.346 24.079 24.312 26.688 C24.279 28.456 24.245 30.225 24.209 31.994 C24.124 36.329 24.057 40.664 24 45 C28.063 44.919 32.125 44.806 36.188 44.688 C37.338 44.665 38.488 44.642 39.674 44.619 C40.786 44.584 41.897 44.548 43.043 44.512 C44.575 44.472 44.575 44.472 46.137 44.432 C49.449 43.932 51.351 43.036 54 41 C55.369 37.42 55.369 37.42 56 34 C56.66 34 57.32 34 58 34 C58 42.91 58 51.82 58 61 C57.34 61 56.68 61 56 61 C55.01 56.05 55.01 56.05 54 51 C47.713 48.806 41.685 48.572 35.062 48.375 C33.997 48.336 32.932 48.298 31.834 48.258 C29.223 48.164 26.612 48.078 24 48 C24.118 53.803 24.242 59.605 24.372 65.407 C24.416 67.382 24.457 69.357 24.497 71.332 C24.555 74.167 24.619 77.001 24.684 79.836 C24.7 80.722 24.717 81.609 24.734 82.522 C24.711 86.899 24.711 86.899 26 91 C30.954 92.651 36.062 92.31 41.25 92.375 C42.37 92.412 43.49 92.45 44.645 92.488 C51.823 92.565 55.745 92.032 61 87 C62.528 85.043 62.528 85.043 63.312 83 C63.613 82.319 63.913 81.639 64.223 80.938 C64.479 80.298 64.736 79.659 65 79 C65.413 78.01 65.825 77.02 66.25 76 C66.621 75.01 66.621 75.01 67 74 C67.33 74 67.66 74 68 74 C68.028 75.583 68.047 77.167 68.062 78.75 C68.074 79.632 68.086 80.513 68.098 81.422 C67.956 86.626 67.432 91.812 67 97 C44.89 97 22.78 97 0 97 C0 96.34 0 95.68 0 95 C5.94 94.01 5.94 94.01 12 93 C12.89 88.548 13.142 84.539 13.129 80.044 C13.131 79.258 13.133 78.473 13.135 77.663 C13.139 75.075 13.136 72.487 13.133 69.898 C13.133 68.097 13.134 66.295 13.136 64.493 C13.137 60.722 13.135 56.952 13.13 53.181 C13.125 48.344 13.128 43.507 13.134 38.671 C13.138 34.953 13.136 31.235 13.134 27.517 C13.133 25.733 13.134 23.949 13.136 22.165 C13.139 19.676 13.135 17.186 13.129 14.697 C13.131 13.958 13.133 13.219 13.136 12.458 C13.123 9.362 12.987 6.961 12 4 C8.04 3.67 4.08 3.34 0 3 C0 2.01 0 1.02 0 0 Z " fill="#ECECEC" transform="translate(638,1)"/>
<path d="M0 0 C27.72 0 55.44 0 84 0 C83.67 8.58 83.34 17.16 83 26 C82.34 26 81.68 26 81 26 C80.836 24.896 80.836 24.896 80.668 23.77 C79.82 18.552 79.117 14.392 76 10 C76 9.34 76 8.68 76 8 C67.594 4.746 57.732 3.089 49 6 C47.437 9.125 47.826 12.458 47.807 15.89 C47.799 16.705 47.791 17.52 47.782 18.359 C47.757 21.061 47.741 23.763 47.727 26.465 C47.719 27.847 47.719 27.847 47.71 29.256 C47.684 34.129 47.664 39.002 47.65 43.875 C47.633 48.917 47.588 53.959 47.538 59.001 C47.504 62.87 47.492 66.74 47.487 70.61 C47.48 72.469 47.465 74.328 47.441 76.187 C47.409 78.786 47.409 81.382 47.417 83.98 C47.4 84.752 47.384 85.523 47.367 86.318 C47.338 88.709 47.338 88.709 48 92 C51.142 94.597 53.79 95.387 57.812 95.688 C58.603 95.753 59.393 95.819 60.207 95.887 C60.799 95.924 61.39 95.961 62 96 C62 96.33 62 96.66 62 97 C48.47 97 34.94 97 21 97 C21 96.67 21 96.34 21 96 C22.139 95.836 22.139 95.836 23.301 95.668 C24.792 95.43 24.792 95.43 26.312 95.188 C27.299 95.037 28.285 94.886 29.301 94.73 C32.362 93.902 33.216 93.589 35 91 C35.281 88.21 35.379 85.646 35.341 82.857 C35.341 82.027 35.341 81.198 35.342 80.343 C35.34 77.6 35.316 74.857 35.293 72.113 C35.287 70.212 35.283 68.31 35.28 66.409 C35.269 61.403 35.239 56.397 35.206 51.391 C35.175 46.284 35.162 41.176 35.146 36.068 C35.114 26.045 35.063 16.023 35 6 C26.499 4.194 16.58 3.162 9 8 C3.554 12.939 2.008 19.068 0 26 C-0.66 26 -1.32 26 -2 26 C-1.34 17.42 -0.68 8.84 0 0 Z " fill="#DFDFDF" transform="translate(365,0)"/>
<path d="M0 0 C-0.701 0.66 -1.403 1.32 -2.125 2 C-12.683 12.648 -16.281 23.422 -16.244 38.259 C-16.013 52.475 -12.092 66.784 -2.312 77.5 C4.71 83.903 13.784 87.855 23.188 88.562 C24.818 88.688 24.818 88.688 26.48 88.816 C27.312 88.877 28.143 88.938 29 89 C28.505 90.485 28.505 90.485 28 92 C11.337 92.495 -1.581 91.497 -14.516 79.707 C-19.937 74.061 -23.218 68.275 -26 61 C-26.539 59.708 -26.539 59.708 -27.09 58.391 C-31.466 46.896 -29.847 32.735 -25.004 21.738 C-21.239 14.274 -9.67 -3.223 0 0 Z " fill="#F6F6F6" transform="translate(893,7)"/>
<path d="M0 0 C8.59 8.382 14.452 18.444 14.806 30.592 C14.85 45.593 11.289 58.459 0.699 69.594 C-8.804 78.129 -19.836 83.083 -32.562 83.625 C-32.232 82.635 -31.903 81.645 -31.562 80.625 C-29.244 79.805 -26.993 79.134 -24.625 78.5 C-15.307 75.687 -8.694 70.636 -3.625 62.188 C0.435 53.645 1.974 45.685 1.875 36.25 C1.867 35.239 1.86 34.228 1.852 33.187 C1.565 20.194 -2.438 10.743 -10.875 0.938 C-18.985 -6.04 -26.246 -9.536 -36.938 -10 C-37.674 -10.039 -38.41 -10.077 -39.168 -10.117 C-40.966 -10.211 -42.764 -10.294 -44.562 -10.375 C-44.562 -10.705 -44.562 -11.035 -44.562 -11.375 C-27.262 -13.163 -13.807 -11.282 0 0 Z " fill="#F3F3F3" transform="translate(834.5625,14.375)"/>
<path d="M0 0 C3.327 2.733 4.813 6.402 6.574 10.223 C6.903 10.924 7.232 11.625 7.57 12.348 C8.262 13.826 8.95 15.307 9.635 16.788 C10.687 19.061 11.75 21.329 12.814 23.596 C13.485 25.034 14.155 26.472 14.824 27.91 C15.143 28.59 15.462 29.271 15.79 29.971 C18 34.768 18 34.768 18 37 C7.11 37 -3.78 37 -15 37 C-12.842 30.525 -10.599 24.253 -8.062 17.938 C-7.728 17.091 -7.393 16.245 -7.049 15.373 C-4.94 10.104 -2.606 5.042 0 0 Z " fill="#040404" transform="translate(309,15)"/>
<path d="M0 0 C0.66 0.33 1.32 0.66 2 1 C-1.459 5.362 -5.733 6.776 -11 8 C-12.32 8 -13.64 8 -15 8 C-14.67 7.01 -14.34 6.02 -14 5 C-11.348 3.867 -11.348 3.867 -8.062 2.875 C-3.942 1.66 -3.942 1.66 0 0 Z " fill="#DEDEDE" transform="translate(936,91)"/>
<path d="M0 0 C-1 2 -1 2 -3.285 2.852 C-4.66 3.234 -4.66 3.234 -6.062 3.625 C-6.982 3.885 -7.901 4.146 -8.848 4.414 C-9.558 4.607 -10.268 4.801 -11 5 C-11 4.01 -11 3.02 -11 2 C-9.734 1.468 -8.462 0.95 -7.188 0.438 C-6.48 0.147 -5.772 -0.143 -5.043 -0.441 C-3 -1 -3 -1 0 0 Z " fill="#D8D8D8" transform="translate(903,3)"/>
<path d="M0 0 C-1.75 2 -1.75 2 -4 4 C-5.32 4 -6.64 4 -8 4 C-7.67 3.01 -7.34 2.02 -7 1 C-4.537 -0.231 -2.72 -0.072 0 0 Z " fill="#D0D0D0" transform="translate(929,95)"/>
<path d="M0 0 C0.66 1.32 1.32 2.64 2 4 C1.01 4.33 0.02 4.66 -1 5 C-0.67 3.35 -0.34 1.7 0 0 Z " fill="#383838" transform="translate(72,18)"/>
<path d="M0 0 C0.66 1.32 1.32 2.64 2 4 C1.01 4.33 0.02 4.66 -1 5 C-0.67 3.35 -0.34 1.7 0 0 Z " fill="#323232" transform="translate(560,18)"/>
<path d="M0 0 C0.66 0 1.32 0 2 0 C2 0.99 2 1.98 2 3 C0.68 2.67 -0.64 2.34 -2 2 C-1.34 1.34 -0.68 0.68 0 0 Z " fill="#E8E8E8" transform="translate(904,1)"/>
</svg>